<?xml version="1.0" encoding="UTF-8" standalone="no"?>
<svg width="79.375mm" height="38.6292mm"
 xmlns="http://www.w3.org/2000/svg" xmlns:xlink="http://www.w3.org/1999/xlink"  version="1.2" baseProfile="tiny">
<desc>Created by HiQPdf</desc>
<defs>
</defs>
<g fill="none" stroke="black" stroke-width="1" fill-rule="evenodd" stroke-linecap="square" stroke-linejoin="bevel" >

<g fill="#000000" fill-opacity="1" stroke="#000000" stroke-opacity="1" stroke-width="1" stroke-linecap="square" stroke-linejoin="miter" stroke-miterlimit="2" transform="matrix(1,0,0,1,0,0)"
>
</g>

<g fill="#000000" fill-opacity="1" stroke="#000000" stroke-opacity="1" stroke-width="1" stroke-linecap="square" stroke-linejoin="miter" stroke-miterlimit="2" transform="matrix(1,0,0,1,0,0)"
>
</g>

<g fill="#000000" fill-opacity="1" stroke="#000000" stroke-opacity="1" stroke-width="1" stroke-linecap="square" stroke-linejoin="miter" stroke-miterlimit="2" transform="matrix(1,0,0,1,0,0)"
>
</g>

<g fill="#0d1117" fill-opacity="1" stroke="none" transform="matrix(1,0,0,1,0,0)"
>
<path vector-effect="none" fill-rule="evenodd" d="M8,41 L292,41 L292,105 L8,105 L8,41"/>
</g>

<g fill="#c9d1d9" fill-opacity="1" stroke="#c9d1d9" stroke-opacity="1" stroke-width="1" stroke-linecap="square" stroke-linejoin="bevel" transform="matrix(1,0,0,1,0,0)"
>
<text fill="#c9d1d9" fill-opacity="1" stroke="none" xml:space="preserve" x="8" y="53" font-family="Courier New" font-size="13" font-weight="400" font-style="normal" 
 >    main(): </text>
</g>

<g fill="#ff7b72" fill-opacity="1" stroke="#ff7b72" stroke-opacity="1" stroke-width="1" stroke-linecap="square" stroke-linejoin="bevel" transform="matrix(1,0,0,1,0,0)"
>
<text fill="#ff7b72" fill-opacity="1" stroke="none" xml:space="preserve" x="104" y="53" font-family="Courier New" font-size="13" font-weight="400" font-style="normal" 
 >void</text>
</g>

<g fill="#c9d1d9" fill-opacity="1" stroke="#c9d1d9" stroke-opacity="1" stroke-width="1" stroke-linecap="square" stroke-linejoin="bevel" transform="matrix(1,0,0,1,0,0)"
>
<text fill="#c9d1d9" fill-opacity="1" stroke="none" xml:space="preserve" x="136" y="53" font-family="Courier New" font-size="13" font-weight="400" font-style="normal" 
 > {</text>
</g>

<g fill="#c9d1d9" fill-opacity="1" stroke="#c9d1d9" stroke-opacity="1" stroke-width="1" stroke-linecap="square" stroke-linejoin="bevel" transform="matrix(1,0,0,1,0,0)"
>
<text fill="#c9d1d9" fill-opacity="1" stroke="none" xml:space="preserve" x="8" y="69" font-family="Courier New" font-size="13" font-weight="400" font-style="normal" 
 >        </text>
</g>

<g fill="#ff7b72" fill-opacity="1" stroke="#ff7b72" stroke-opacity="1" stroke-width="1" stroke-linecap="square" stroke-linejoin="bevel" transform="matrix(1,0,0,1,0,0)"
>
<text fill="#ff7b72" fill-opacity="1" stroke="none" xml:space="preserve" x="72" y="69" font-family="Courier New" font-size="13" font-weight="400" font-style="normal" 
 >puts</text>
</g>

<g fill="#c9d1d9" fill-opacity="1" stroke="#c9d1d9" stroke-opacity="1" stroke-width="1" stroke-linecap="square" stroke-linejoin="bevel" transform="matrix(1,0,0,1,0,0)"
>
<text fill="#c9d1d9" fill-opacity="1" stroke="none" xml:space="preserve" x="104" y="69" font-family="Courier New" font-size="13" font-weight="400" font-style="normal" 
 > </text>
</g>

<g fill="#a5d6ff" fill-opacity="1" stroke="#a5d6ff" stroke-opacity="1" stroke-width="1" stroke-linecap="square" stroke-linejoin="bevel" transform="matrix(1,0,0,1,0,0)"
>
<text fill="#a5d6ff" fill-opacity="1" stroke="none" xml:space="preserve" x="112" y="69" font-family="Courier New" font-size="13" font-weight="400" font-style="normal" 
 >&quot;Hello World!\n&quot;</text>
</g>

<g fill="#c9d1d9" fill-opacity="1" stroke="#c9d1d9" stroke-opacity="1" stroke-width="1" stroke-linecap="square" stroke-linejoin="bevel" transform="matrix(1,0,0,1,0,0)"
>
<text fill="#c9d1d9" fill-opacity="1" stroke="none" xml:space="preserve" x="240" y="69" font-family="Courier New" font-size="13" font-weight="400" font-style="normal" 
 >;</text>
</g>

<g fill="#c9d1d9" fill-opacity="1" stroke="#c9d1d9" stroke-opacity="1" stroke-width="1" stroke-linecap="square" stroke-linejoin="bevel" transform="matrix(1,0,0,1,0,0)"
>
<text fill="#c9d1d9" fill-opacity="1" stroke="none" xml:space="preserve" x="8" y="85" font-family="Courier New" font-size="13" font-weight="400" font-style="normal" 
 >    }</text>
</g>

<g fill="#c9d1d9" fill-opacity="1" stroke="#c9d1d9" stroke-opacity="1" stroke-width="1" stroke-linecap="square" stroke-linejoin="bevel" transform="matrix(1,0,0,1,0,0)"
>
<text fill="#c9d1d9" fill-opacity="1" stroke="none" xml:space="preserve" x="8" y="101" font-family="Courier New" font-size="13" font-weight="400" font-style="normal" 
 >    </text>
</g>

<g fill="#000000" fill-opacity="1" stroke="#000000" stroke-opacity="1" stroke-width="1" stroke-linecap="square" stroke-linejoin="miter" stroke-miterlimit="2" transform="matrix(1,0,0,1,0,0)"
>
</g>

<g fill="#000000" fill-opacity="1" stroke="#000000" stroke-opacity="1" stroke-width="1" stroke-linecap="square" stroke-linejoin="miter" stroke-miterlimit="2" transform="matrix(1,0,0,1,0,0)"
>
</g>

<g fill="#000000" fill-opacity="1" stroke="#000000" stroke-opacity="1" stroke-width="1" stroke-linecap="square" stroke-linejoin="miter" stroke-miterlimit="2" transform="matrix(1,0,0,1,0,0)"
>
</g>
</g>
</svg>
