<?xml version="1.0" standalone="no"?>
<!DOCTYPE svg PUBLIC "-//W3C//DTD SVG 20010904//EN"
 "http://www.w3.org/TR/2001/REC-SVG-20010904/DTD/svg10.dtd">
<svg version="1.0" xmlns="http://www.w3.org/2000/svg"
 width="1024.000000pt" height="1024.000000pt" viewBox="0 0 1024.000000 1024.000000"
 preserveAspectRatio="xMidYMid meet">
<metadata>
Created by potrace 1.16, written by Peter Selinger 2001-2019
</metadata>
<g transform="translate(0.000000,1024.000000) scale(0.100000,-0.100000)"
fill="#000000" stroke="none">
<path d="M690 5285 l0 -1975 425 0 425 0 0 775 0 775 665 0 665 0 0 355 0 355
-665 0 -665 0 0 490 0 490 715 0 715 0 0 355 0 355 -1140 0 -1140 0 0 -1975z"/>
<path d="M3637 6333 c-12 -11 -8 -2113 3 -2200 14 -106 37 -207 61 -273 31
-86 81 -190 90 -190 5 0 9 -6 9 -14 0 -8 7 -16 15 -20 8 -3 15 -10 15 -15 0
-13 131 -138 188 -179 162 -118 429 -192 692 -192 396 0 738 149 903 392 18
26 37 48 44 48 6 0 14 -15 18 -32 3 -18 10 -44 14 -58 5 -14 14 -45 21 -70 7
-25 16 -56 20 -70 7 -22 16 -55 35 -127 l6 -23 330 0 329 0 0 1515 0 1515
-422 -2 -423 -3 -6 -835 c-6 -855 -9 -924 -48 -1070 -6 -19 -14 -52 -19 -72
-11 -44 -83 -201 -94 -206 -5 -2 -8 -9 -8 -16 0 -22 -105 -112 -162 -139 -94
-45 -178 -59 -313 -55 -95 4 -132 9 -180 28 -114 44 -204 162 -251 330 -17 61
-19 130 -22 1053 l-3 987 -418 0 c-230 0 -421 -3 -424 -7z"/>
<path d="M6910 6321 c0 -19 655 -1023 671 -1029 5 -2 9 -10 9 -18 0 -8 5 -14
10 -14 6 0 10 -7 10 -15 0 -8 5 -15 10 -15 6 0 10 -7 10 -15 0 -8 5 -15 10
-15 6 0 10 -7 10 -15 0 -8 5 -15 10 -15 6 0 10 -7 10 -15 0 -8 5 -15 10 -15 6
0 10 -7 10 -15 0 -8 4 -15 9 -15 5 0 12 -11 15 -25 4 -14 11 -25 16 -25 6 0
10 -7 10 -15 0 -8 5 -15 10 -15 6 0 10 -7 10 -15 0 -8 5 -15 10 -15 6 0 10 -7
10 -15 0 -8 5 -15 10 -15 6 0 10 -7 10 -15 0 -8 5 -15 10 -15 6 0 10 -7 10
-15 0 -8 5 -15 10 -15 6 0 10 -7 10 -15 0 -8 5 -15 10 -15 6 0 10 -7 10 -15 0
-8 -225 -355 -501 -771 -289 -437 -498 -762 -495 -770 5 -12 80 -14 480 -14
l474 0 308 501 c267 436 309 499 317 480 6 -11 13 -21 17 -21 5 0 11 -11 14
-25 4 -14 11 -25 16 -25 6 0 10 -7 10 -15 0 -8 5 -15 10 -15 6 0 10 -6 10 -14
0 -8 6 -21 14 -28 7 -8 17 -24 20 -36 4 -12 12 -22 17 -22 5 0 9 -7 9 -15 0
-8 5 -15 10 -15 6 0 10 -6 10 -14 0 -8 6 -21 14 -28 7 -8 17 -24 20 -36 4 -12
12 -22 17 -22 5 0 9 -7 9 -15 0 -8 5 -15 10 -15 6 0 10 -6 10 -14 0 -8 6 -21
14 -28 7 -8 17 -24 20 -36 4 -12 12 -22 17 -22 5 0 9 -7 9 -15 0 -8 5 -15 10
-15 6 0 10 -6 10 -14 0 -8 6 -21 14 -28 7 -8 17 -24 20 -36 4 -12 12 -22 17
-22 5 0 9 -7 9 -15 0 -8 5 -15 10 -15 6 0 10 -6 10 -14 0 -8 6 -21 14 -28 7
-8 17 -24 20 -36 4 -12 12 -22 17 -22 5 0 9 -7 9 -15 0 -8 5 -15 10 -15 6 0
10 -6 10 -14 0 -8 6 -21 14 -28 7 -8 17 -24 20 -36 4 -12 12 -22 17 -22 5 0 9
-7 9 -15 0 -8 5 -15 10 -15 6 0 10 -6 10 -14 0 -8 6 -21 14 -28 7 -8 17 -24
20 -36 l7 -22 486 0 c460 0 485 1 481 18 -3 10 -231 356 -506 770 -276 413
-502 754 -502 757 0 3 216 329 480 725 264 396 480 729 480 740 0 20 -6 20
-479 20 l-480 0 -7 -22 c-3 -12 -13 -28 -20 -36 -8 -7 -14 -20 -14 -28 0 -8
-4 -14 -10 -14 -5 0 -10 -7 -10 -15 0 -8 -4 -15 -9 -15 -5 0 -13 -10 -17 -22
-3 -12 -13 -28 -20 -36 -8 -7 -14 -20 -14 -28 0 -8 -4 -14 -10 -14 -5 0 -10
-7 -10 -15 0 -8 -4 -15 -9 -15 -5 0 -13 -10 -17 -22 -3 -12 -13 -28 -20 -36
-8 -7 -14 -20 -14 -28 0 -8 -4 -14 -10 -14 -5 0 -10 -7 -10 -15 0 -8 -4 -15
-9 -15 -5 0 -13 -10 -17 -22 -3 -12 -13 -28 -20 -36 -8 -7 -14 -20 -14 -28 0
-8 -4 -14 -10 -14 -5 0 -10 -7 -10 -15 0 -8 -4 -15 -9 -15 -5 0 -13 -10 -17
-22 -3 -12 -13 -28 -20 -36 -8 -7 -14 -20 -14 -28 0 -8 -4 -14 -10 -14 -5 0
-10 -7 -10 -15 0 -8 -4 -15 -9 -15 -5 0 -13 -10 -17 -22 -3 -12 -13 -28 -20
-36 -8 -7 -14 -20 -14 -28 0 -8 -4 -14 -10 -14 -5 0 -10 -7 -10 -15 0 -8 -4
-15 -9 -15 -5 0 -13 -10 -17 -22 -3 -12 -13 -28 -20 -36 -8 -7 -14 -20 -14
-28 0 -8 -4 -14 -9 -14 -5 0 -14 -15 -20 -32 l-12 -33 -32 52 c-18 28 -147
241 -287 472 l-255 420 -477 1 c-466 0 -478 0 -478 -19z"/>
</g>
</svg>
