<svg id="logo-42" width="126" height="44" viewBox="0 0 126 44" fill="none" xmlns="http://www.w3.org/2000/svg"> <path class="ccustom" fill-rule="evenodd" clip-rule="evenodd" d="M115.66 27.5782C114.355 27.6873 113.016 27.2063 112.072 26.1578L108.969 22.7123C107.908 21.534 107.092 20.1771 106.548 18.7197C106.488 18.7431 106.427 18.7682 106.368 18.7948C106.765 20.0924 107.376 21.3278 108.189 22.4464L110.914 26.1973C111.926 27.5903 113.632 28.1812 115.213 27.8405C115.281 27.8061 115.348 27.7697 115.415 27.7312C115.499 27.6826 115.581 27.6316 115.66 27.5782ZM115.867 27.4303C114.532 27.6117 113.134 27.1511 112.164 26.0744L109.062 22.629C108.012 21.4625 107.204 20.1194 106.665 18.6768C106.717 18.6589 106.768 18.6421 106.82 18.6265C107.525 20.2039 108.557 21.6332 109.866 22.8117L113.311 25.9141C114.17 26.6872 115.253 27.0541 116.323 27.0271C116.183 27.1709 116.03 27.3058 115.867 27.4303ZM115.916 27.5492C115.843 27.6041 115.768 27.657 115.691 27.7077C115.858 27.6503 116.023 27.5818 116.184 27.5021C116.095 27.5206 116.006 27.5363 115.916 27.5492ZM116.612 27.2592C116.449 27.3125 116.284 27.3556 116.118 27.3885C116.255 27.2724 116.383 27.1489 116.503 27.0189C116.679 27.0072 116.855 26.9847 117.029 26.9516C116.955 27.0131 116.879 27.0724 116.801 27.1296C116.738 27.1747 116.675 27.2179 116.612 27.2592ZM116.666 27.3725C116.223 27.6573 115.745 27.8515 115.255 27.9589C113.217 28.9853 110.706 28.2529 109.55 26.251L107.232 22.2358C106.646 21.2212 106.212 20.139 105.932 19.0224L102.666 20.908C100.591 22.1061 97.9376 21.3951 96.7395 19.3199C96.4305 18.7847 96.2485 18.2111 96.1841 17.6338C95.9978 17.1414 95.9073 16.6338 95.904 16.1327C95.7702 15.6233 95.7332 15.1089 95.7824 14.6101C95.7026 14.0901 95.7194 13.5752 95.8203 13.0847C95.7951 12.5585 95.8657 12.0474 96.0176 11.5695C96.0476 11.0435 96.1714 10.5426 96.3725 10.0832C96.4574 9.56347 96.6328 9.07849 96.8807 8.64283C97.0194 8.13497 97.2445 7.67109 97.5364 7.2638C97.7274 6.77333 97.9996 6.33558 98.3324 5.96108C98.5737 5.49299 98.8903 5.0859 99.2606 4.74809C99.5495 4.30787 99.9069 3.93616 100.31 3.63895C100.644 3.23131 101.038 2.89896 101.47 2.64555C101.845 2.27502 102.271 1.98575 102.728 1.77894C103.139 1.44956 103.594 1.20651 104.069 1.04856C104.512 0.763925 104.99 0.569736 105.479 0.462362C107.518 -0.564262 110.029 0.168076 111.185 2.17008L113.117 5.51784C113.841 6.77047 114.334 8.1261 114.588 9.52234L118.07 7.51239C120.145 6.31429 122.798 7.02529 123.997 9.10046C124.305 9.63533 124.487 10.2086 124.552 10.7855C124.738 11.2781 124.829 11.7858 124.832 12.2871C124.966 12.7963 125.003 13.3106 124.954 13.8094C125.034 14.3304 125.017 14.8463 124.916 15.3376C124.941 15.8634 124.87 16.374 124.718 16.8514C124.688 17.3768 124.565 17.8772 124.364 18.3362C124.279 18.8559 124.104 19.3409 123.856 19.7765C123.717 20.2846 123.492 20.7487 123.2 21.1562C123.009 21.6471 122.737 22.0852 122.403 22.46C122.162 22.928 121.845 23.335 121.475 23.6727C121.186 24.113 120.829 24.4847 120.425 24.782C120.092 25.1896 119.697 25.5219 119.265 25.7753C118.891 26.1459 118.464 26.4352 118.007 26.642C117.596 26.9715 117.142 27.2146 116.666 27.3725ZM117.542 26.8212C117.39 26.9173 117.233 27.0027 117.072 27.0773C117.144 27.0187 117.213 26.9582 117.28 26.896C117.368 26.8738 117.455 26.8489 117.542 26.8212ZM118.381 26.306C118.532 26.215 118.679 26.1137 118.821 26.0022C118.738 26.0388 118.654 26.0727 118.569 26.1039C118.508 26.1728 118.446 26.2402 118.381 26.306ZM118.324 26.1855C118.258 26.2543 118.188 26.3213 118.116 26.3863C118.059 26.4377 118.001 26.4872 117.942 26.5349C117.786 26.6049 117.626 26.665 117.464 26.7152C117.588 26.5854 117.703 26.4492 117.808 26.3074C117.982 26.2773 118.155 26.2366 118.324 26.1855ZM118.732 25.9049C118.888 25.8381 119.041 25.7616 119.189 25.6757C119.242 25.622 119.295 25.5667 119.346 25.5096C119.411 25.4374 119.473 25.3635 119.532 25.2882C119.369 25.3568 119.202 25.4153 119.032 25.4635C118.942 25.6154 118.842 25.7629 118.732 25.9049ZM118.858 25.5088C118.75 25.6786 118.629 25.8421 118.496 25.9979C118.305 26.0663 118.11 26.1208 117.912 26.1611C118.032 25.9848 118.138 25.801 118.229 25.6112C118.441 25.5925 118.651 25.5581 118.858 25.5088ZM119.12 25.3071C119.312 25.2463 119.501 25.1717 119.683 25.0837C119.8 24.9147 119.903 24.7395 119.993 24.5593C119.792 24.63 119.587 24.6861 119.378 24.7269C119.307 24.9252 119.221 25.1192 119.12 25.3071ZM119.236 24.7523C119.157 24.9597 119.062 25.162 118.95 25.3569C118.734 25.4153 118.513 25.4566 118.29 25.4802C118.387 25.2622 118.465 25.0371 118.524 24.8075C118.764 24.8088 119.002 24.7901 119.236 24.7523ZM119.284 24.6177C119.363 24.3858 119.422 24.1482 119.459 23.9077C119.195 23.9261 118.928 23.9204 118.659 23.889C118.649 24.1564 118.613 24.4223 118.554 24.683C118.8 24.6826 119.045 24.6604 119.284 24.6177ZM119.425 24.5903C119.498 24.3633 119.552 24.1314 119.587 23.8969C119.825 23.8731 120.06 23.8296 120.289 23.7675C120.233 23.982 120.159 24.1931 120.068 24.3987C119.859 24.4793 119.644 24.5435 119.425 24.5903ZM120.161 24.4961C120.087 24.6566 120.003 24.8137 119.909 24.9665C120.057 24.8837 120.201 24.7918 120.339 24.6909C120.387 24.6319 120.433 24.5713 120.478 24.5092C120.535 24.4305 120.589 24.3506 120.64 24.2695C120.485 24.3547 120.325 24.4304 120.161 24.4961ZM120.769 24.0503C120.597 24.1568 120.417 24.2507 120.232 24.3313C120.313 24.1339 120.378 23.9321 120.428 23.7274C120.632 23.665 120.83 23.5878 121.022 23.4966C120.952 23.6851 120.867 23.8701 120.769 24.0503ZM120.862 24.1389C120.818 24.2188 120.771 24.2977 120.72 24.3756C120.85 24.2551 120.973 24.1254 121.088 23.9869C121.014 24.04 120.939 24.0907 120.862 24.1389ZM121.38 23.5911C121.253 23.7059 121.12 23.8124 120.981 23.9102C121.059 23.7485 121.126 23.5834 121.182 23.4161C121.339 23.3337 121.49 23.2417 121.636 23.1407C121.593 23.2266 121.548 23.3117 121.499 23.3959C121.461 23.4624 121.421 23.5275 121.38 23.5911ZM121.726 23.2378C121.843 23.1044 121.951 22.9626 122.051 22.8129C121.983 22.8734 121.914 22.9316 121.843 22.9876C121.807 23.0717 121.768 23.1551 121.726 23.2378ZM121.937 22.7478C121.997 22.5787 122.047 22.4076 122.085 22.2352C122.232 22.1368 122.373 22.0295 122.507 21.9138C122.475 22.0037 122.438 22.0931 122.399 22.1819C122.367 22.2521 122.335 22.3211 122.3 22.3888C122.186 22.5162 122.064 22.636 121.937 22.7478ZM121.741 22.9093C121.82 22.7197 121.884 22.5268 121.934 22.3321C121.753 22.4428 121.564 22.5403 121.368 22.6237C121.339 22.8325 121.296 23.0401 121.236 23.2448C121.412 23.1453 121.58 23.0332 121.741 22.9093ZM121.08 23.329C121.149 23.115 121.2 22.8973 121.234 22.678C121.013 22.7637 120.784 22.8315 120.549 22.8801C120.539 23.117 120.509 23.3533 120.46 23.5866C120.673 23.5172 120.881 23.431 121.08 23.329ZM120.324 23.6286C120.378 23.3898 120.411 23.1473 120.423 22.9042C120.163 22.9502 119.896 22.9725 119.625 22.9693C119.643 23.2363 119.636 23.5044 119.604 23.7699C119.849 23.7437 120.089 23.6962 120.324 23.6286ZM119.477 23.7815C119.511 23.5112 119.519 23.2381 119.5 22.9661C119.258 22.9562 119.014 22.926 118.769 22.8739L118.571 22.8319C118.636 23.1401 118.666 23.4526 118.662 23.764C118.936 23.7967 119.209 23.802 119.477 23.7815ZM118.538 23.7472C118.54 23.4318 118.507 23.1151 118.438 22.8035L117.379 22.5783C117.491 22.8822 117.568 23.1933 117.609 23.506L117.856 23.5862C118.082 23.6597 118.31 23.713 118.538 23.7472ZM117.478 23.4632C117.432 23.154 117.351 22.8469 117.233 22.5475L114.234 21.91C111.826 21.398 109.641 20.1906 107.937 18.4637C107.924 18.4636 107.911 18.4636 107.898 18.4637C109.363 20.1639 111.277 21.4484 113.447 22.1535L117.478 23.4632ZM107.738 18.4681C109.226 20.2236 111.184 21.5492 113.408 22.2719L117.495 23.6C117.532 23.9172 117.532 24.2356 117.496 24.549C117.273 24.4913 117.052 24.4144 116.835 24.3176L112.599 22.4319C110.625 21.5529 108.934 20.1811 107.674 18.4718C107.695 18.4704 107.717 18.4692 107.738 18.4681ZM107.794 18.3412C107.802 18.3409 107.81 18.3407 107.818 18.3405C107.777 18.2978 107.736 18.2549 107.696 18.2116C107.692 18.2111 107.689 18.2105 107.685 18.21C107.721 18.254 107.757 18.2977 107.794 18.3412ZM107.506 18.1862C107.55 18.241 107.594 18.2954 107.639 18.3494C107.622 18.3506 107.605 18.3519 107.588 18.3534C107.547 18.2966 107.507 18.2396 107.467 18.1821C107.48 18.1834 107.493 18.1848 107.506 18.1862ZM108.118 18.4686C109.791 20.129 111.919 21.2904 114.26 21.7881L117.176 22.4079C117.112 22.2611 117.039 22.1165 116.957 21.9746L116.769 21.6478L115.018 21.4637C112.451 21.194 110.05 20.139 108.128 18.4691C108.125 18.469 108.122 18.4688 108.118 18.4686ZM108.502 18.6206C110.353 20.1317 112.618 21.0863 115.031 21.3399L116.692 21.5144L116.359 20.938H115.75C113.135 20.938 110.604 20.1181 108.502 18.6206ZM116.503 20.938L116.845 21.5305L117.995 21.6514C117.917 21.5121 117.829 21.3758 117.733 21.2433L117.511 20.938H116.503ZM117.421 20.8135H116.431L116.171 20.3626C116.255 20.3554 116.34 20.3474 116.424 20.3385L117.029 20.2749L117.421 20.8135ZM117.665 20.938L117.834 21.1701C117.95 21.3309 118.055 21.497 118.146 21.6673L119.246 21.7829C119.137 21.4901 118.994 21.2065 118.817 20.938H117.665ZM118.732 20.8135H117.575L117.172 20.2599L118.175 20.1545L118.428 20.4348C118.537 20.5566 118.639 20.6831 118.732 20.8135ZM118.965 20.938C119.139 21.2119 119.278 21.5002 119.384 21.7974L119.642 21.8245C119.878 21.8494 120.113 21.8541 120.342 21.8402C120.279 21.5313 120.181 21.2284 120.049 20.938L118.965 20.938ZM119.989 20.8135H118.883C118.774 20.6536 118.653 20.4992 118.52 20.3515L118.328 20.1384L119.474 20.018C119.678 20.2665 119.85 20.5336 119.989 20.8135ZM120.185 20.938C120.312 21.2261 120.406 21.5256 120.468 21.8307C120.742 21.8058 121.01 21.7543 121.268 21.6784C121.245 21.407 121.196 21.1382 121.122 20.8761C120.883 20.9168 120.637 20.938 120.387 20.938H120.185ZM121.085 20.7558C120.858 20.7937 120.625 20.8135 120.387 20.8135H120.128C119.992 20.529 119.823 20.2567 119.622 20.0025L120.699 19.8892C120.861 20.1642 120.99 20.4552 121.085 20.7558ZM121.245 20.8532C121.317 21.1108 121.366 21.3744 121.39 21.6406C121.624 21.5642 121.849 21.4676 122.064 21.3529C122.068 21.1079 122.05 20.8639 122.011 20.6236C121.766 20.7227 121.51 20.8001 121.245 20.8532ZM121.989 20.4981C121.74 20.6006 121.479 20.6799 121.209 20.7333C121.116 20.4362 120.991 20.1482 120.835 19.875L121.035 19.8539C121.284 19.8277 121.526 19.7809 121.76 19.7155C121.861 19.9684 121.938 20.2306 121.989 20.4981ZM122.129 20.5739C122.169 20.8077 122.189 21.045 122.189 21.2834C122.383 21.1711 122.568 21.0436 122.742 20.9024C122.765 20.6787 122.77 20.4551 122.757 20.2336C122.559 20.3635 122.349 20.4775 122.129 20.5739ZM122.747 20.091C122.545 20.2277 122.331 20.3473 122.106 20.4478C122.054 20.1856 121.978 19.9284 121.879 19.6799C122.138 19.5993 122.385 19.4956 122.618 19.3713C122.682 19.6063 122.725 19.8471 122.747 20.091ZM122.877 20.1526C122.893 20.3628 122.893 20.5749 122.877 20.7876C123.028 20.6536 123.17 20.5088 123.301 20.3541C123.339 20.1523 123.362 19.9503 123.37 19.7495C123.216 19.8955 123.051 20.0303 122.877 20.1526ZM123.374 19.5721C123.216 19.7307 123.045 19.8768 122.864 20.0088C122.839 19.7718 122.794 19.5379 122.73 19.3095C122.939 19.1907 123.135 19.0554 123.319 18.9055C123.355 19.1244 123.373 19.3472 123.374 19.5721ZM123.498 19.6233C123.496 19.7998 123.483 19.9774 123.459 20.1553C123.561 20.0194 123.655 19.8769 123.74 19.7285C123.76 19.6553 123.778 19.5812 123.793 19.5062C123.814 19.411 123.831 19.3159 123.844 19.221C123.737 19.3621 123.621 19.4964 123.498 19.6233ZM123.872 18.9685C123.758 19.1359 123.633 19.2947 123.496 19.4437C123.49 19.2307 123.467 19.0197 123.43 18.8124C123.59 18.6726 123.74 18.5213 123.878 18.3601C123.891 18.5606 123.889 18.7638 123.872 18.9685ZM123.994 19.0114C123.986 19.1024 123.975 19.1937 123.96 19.2851C124.03 19.1224 124.089 18.9541 124.138 18.7809C124.092 18.8593 124.044 18.9362 123.994 19.0114ZM124.243 18.3006C124.174 18.457 124.096 18.6084 124.009 18.7542C124.014 18.5748 124.009 18.3969 123.992 18.2212C124.101 18.0823 124.202 17.9367 124.294 17.7853C124.29 17.881 124.284 17.9772 124.273 18.0739C124.265 18.1502 124.255 18.2257 124.243 18.3006ZM124.416 17.8365C124.468 17.6677 124.51 17.4943 124.54 17.3172C124.503 17.3998 124.463 17.4812 124.421 17.5611C124.422 17.6524 124.421 17.7442 124.416 17.8365ZM124.409 17.3037C124.48 17.1498 124.542 16.9912 124.595 16.8285C124.599 16.7526 124.601 16.6762 124.601 16.5993C124.601 16.5023 124.598 16.4061 124.591 16.3107C124.516 16.4708 124.431 16.626 124.337 16.7755C124.371 16.9485 124.396 17.1248 124.409 17.3037ZM124.297 16.6003C124.4 16.4264 124.49 16.2451 124.566 16.0578C124.54 15.854 124.5 15.6547 124.445 15.4611C124.344 15.6474 124.229 15.8263 124.101 15.9964C124.181 16.1914 124.247 16.3932 124.297 16.6003ZM124.013 16.1104C124.093 16.3171 124.157 16.5314 124.204 16.7513C124.083 16.9391 123.947 17.1173 123.797 17.284C123.723 17.0574 123.63 16.838 123.521 16.6277C123.699 16.4683 123.864 16.2951 124.013 16.1104ZM124.044 15.8636C124.176 15.6822 124.293 15.4907 124.394 15.2912C124.324 15.0774 124.238 14.8711 124.136 14.6739C124.008 14.8732 123.862 15.0626 123.701 15.2398C123.832 15.4374 123.947 15.646 124.044 15.8636ZM123.614 15.3333C123.746 15.5371 123.862 15.7528 123.958 15.9779C123.809 16.1701 123.642 16.35 123.46 16.5149C123.329 16.2816 123.178 16.0605 123.007 15.8547C123.227 15.6984 123.43 15.5235 123.614 15.3333ZM123.629 15.134C123.793 14.9509 123.94 14.7546 124.069 14.5478C123.949 14.3339 123.812 14.1315 123.658 13.9427C123.495 14.1511 123.312 14.3462 123.109 14.5247C123.301 14.7115 123.475 14.9155 123.629 15.134ZM123.014 14.606C123.21 14.7958 123.387 15.004 123.542 15.2276C123.357 15.4224 123.15 15.6009 122.925 15.7597C122.72 15.5261 122.488 15.3139 122.234 15.1278L122.409 15.0272C122.625 14.902 122.828 14.7608 123.014 14.606ZM123.018 14.4387C123.226 14.2573 123.412 14.0582 123.576 13.845C122.804 12.9509 121.661 12.3852 120.387 12.3852L115.75 12.3852C115.421 12.3852 115.096 12.3439 114.782 12.2643C114.778 12.3507 114.774 12.4372 114.769 12.5236C115.132 12.6857 115.522 12.7915 115.925 12.8339L120.536 13.3185C121.5 13.4198 122.356 13.8293 123.018 14.4387ZM114.76 12.6558C115.123 12.8128 115.511 12.9156 115.912 12.9577L120.523 13.4424C121.453 13.5402 122.281 13.9338 122.923 14.5199C122.745 14.6665 122.552 14.8003 122.346 14.9194L122.122 15.0486C121.668 14.7372 121.146 14.5078 120.573 14.3861L116.038 13.4222C115.572 13.323 115.133 13.1385 114.742 12.8823C114.748 12.8068 114.754 12.7313 114.76 12.6558ZM114.647 12.4668C114.652 12.3882 114.655 12.3095 114.658 12.2309C114.63 12.2227 114.601 12.2142 114.573 12.2053C114.576 12.281 114.578 12.3567 114.579 12.4325C114.601 12.4442 114.624 12.4556 114.647 12.4668ZM114.58 12.5727C114.6 12.5823 114.619 12.5917 114.639 12.601C114.634 12.668 114.629 12.7349 114.623 12.8019C114.609 12.7914 114.594 12.7808 114.579 12.77C114.58 12.7042 114.58 12.6384 114.58 12.5727ZM114.453 12.3649C114.451 12.2977 114.45 12.2306 114.447 12.1635C114.427 12.1563 114.406 12.149 114.386 12.1415C114.393 12.2069 114.4 12.2724 114.406 12.3379C114.421 12.347 114.437 12.356 114.453 12.3649ZM114.419 12.4885C114.431 12.4951 114.443 12.5017 114.455 12.5082C114.456 12.564 114.456 12.6198 114.455 12.6756C114.447 12.6692 114.439 12.6627 114.431 12.6562C114.427 12.6003 114.423 12.5443 114.419 12.4885ZM114.273 12.257C114.267 12.2014 114.261 12.1459 114.255 12.0905C114.242 12.0853 114.23 12.0801 114.217 12.0747C114.227 12.1299 114.237 12.1851 114.247 12.2404C114.255 12.2459 114.264 12.2515 114.273 12.257ZM114.274 12.4047C114.279 12.4073 114.283 12.41 114.287 12.4126C114.291 12.4562 114.295 12.4999 114.298 12.5435L114.295 12.5409C114.289 12.4955 114.282 12.45 114.274 12.4047ZM114.103 12.1422C114.095 12.0991 114.087 12.0561 114.078 12.0131C114.074 12.0109 114.069 12.0086 114.064 12.0064C114.076 12.0508 114.088 12.0953 114.099 12.1398L114.103 12.1422ZM114.02 11.8459C114.029 11.8506 114.038 11.8552 114.047 11.8598C114.036 11.8051 114.024 11.7504 114.012 11.6958C113.999 11.692 113.986 11.6881 113.973 11.6841C113.989 11.7379 114.004 11.7918 114.02 11.8459ZM113.828 11.6372C113.841 11.6792 113.854 11.7212 113.866 11.7634L113.863 11.7614C113.847 11.7182 113.83 11.6751 113.814 11.6321C113.819 11.6338 113.823 11.6355 113.828 11.6372ZM113.929 11.5395C113.946 11.5452 113.963 11.5507 113.98 11.5561C113.965 11.4906 113.949 11.4252 113.933 11.36C113.911 11.3572 113.89 11.3543 113.868 11.3512C113.889 11.4138 113.909 11.4766 113.929 11.5395ZM113.729 11.3285C113.747 11.3816 113.765 11.4347 113.782 11.488C113.772 11.4844 113.762 11.4808 113.753 11.4771C113.732 11.4249 113.711 11.3728 113.689 11.3209C113.702 11.3235 113.716 11.3261 113.729 11.3285ZM113.824 11.2183C113.849 11.2224 113.874 11.2262 113.899 11.2298C113.879 11.1536 113.858 11.0776 113.837 11.0019C113.807 11.0029 113.778 11.0035 113.748 11.0038C113.774 11.0751 113.799 11.1466 113.824 11.2183ZM113.615 11.0031C113.638 11.0661 113.661 11.1294 113.683 11.1929C113.665 11.1893 113.648 11.1856 113.63 11.1818C113.604 11.1213 113.577 11.0611 113.55 11.001C113.572 11.0019 113.594 11.0026 113.615 11.0031ZM113.702 10.8795C113.735 10.8795 113.768 10.8791 113.801 10.8783C113.775 10.7907 113.748 10.7033 113.721 10.6163C113.683 10.6238 113.646 10.6308 113.609 10.6372C113.641 10.7176 113.672 10.7984 113.702 10.8795ZM113.482 10.6569C113.512 10.73 113.54 10.8034 113.568 10.8771C113.543 10.8762 113.517 10.875 113.492 10.8736C113.46 10.8048 113.428 10.7363 113.395 10.6681C113.424 10.6647 113.453 10.661 113.482 10.6569ZM113.561 10.519C113.601 10.5123 113.642 10.505 113.682 10.4971C113.649 10.3966 113.614 10.2966 113.578 10.1971C113.534 10.2143 113.49 10.2307 113.445 10.2463C113.485 10.3367 113.523 10.4276 113.561 10.519ZM113.327 10.2856C113.363 10.3692 113.399 10.4533 113.434 10.5378C113.401 10.542 113.369 10.5458 113.336 10.5493C113.297 10.4718 113.258 10.3947 113.218 10.3181C113.254 10.3078 113.29 10.297 113.327 10.2856ZM113.395 10.132C113.442 10.1157 113.489 10.0983 113.536 10.0801C112.847 8.22099 111.714 6.53708 110.214 5.18596L107.341 2.59932C106.473 1.8183 105.371 1.4641 104.291 1.5232C104.14 1.69049 104.005 1.86842 103.885 2.05491C104.698 2.09509 105.509 2.36429 106.217 2.87854L109.344 5.15073C111.121 6.44125 112.509 8.16423 113.395 10.132ZM103.809 2.17648C104.622 2.20331 105.436 2.46525 106.144 2.97931L109.271 5.25149C111.026 6.52651 112.399 8.2279 113.276 10.1711C113.236 10.1832 113.197 10.1947 113.158 10.2055C112.067 8.17954 110.428 6.47651 108.403 5.30731L105.055 3.37448C104.558 3.08719 104.027 2.90968 103.491 2.83441C103.577 2.60706 103.684 2.38681 103.809 2.17648ZM103.74 2.05018C103.851 1.87111 103.976 1.69935 104.114 1.5366C103.913 1.55606 103.713 1.58988 103.516 1.63798C103.367 1.77887 103.23 1.92886 103.105 2.08644C103.315 2.05893 103.528 2.04675 103.74 2.05018ZM102.998 2.22792C103.219 2.19241 103.442 2.17438 103.666 2.17419C103.548 2.38087 103.447 2.59646 103.364 2.81849C103.125 2.79224 102.887 2.786 102.65 2.79913C102.75 2.60111 102.866 2.41 102.998 2.22792ZM102.927 2.11341C103.033 1.97171 103.147 1.83551 103.271 1.70577C103.109 1.75592 102.95 1.81602 102.794 1.88602C102.735 1.93375 102.676 1.98333 102.619 2.03476C102.547 2.09974 102.478 2.16665 102.411 2.23534C102.581 2.18422 102.753 2.14352 102.927 2.11341ZM102.24 2.42302C102.43 2.35462 102.625 2.30011 102.823 2.25975C102.703 2.43599 102.597 2.61983 102.506 2.80952C102.294 2.82835 102.084 2.86268 101.877 2.91203C101.985 2.74227 102.106 2.57877 102.24 2.42302ZM102.167 2.31699C102.227 2.24815 102.289 2.18081 102.354 2.11511C102.203 2.20602 102.056 2.30721 101.915 2.41863C101.998 2.38208 102.082 2.34819 102.167 2.31699ZM101.547 2.74519C101.695 2.65929 101.847 2.58286 102.003 2.51605C101.893 2.65805 101.793 2.8055 101.703 2.95742C101.533 3.00558 101.366 3.06406 101.203 3.13261C101.262 3.05728 101.324 2.98344 101.389 2.91123C101.441 2.85415 101.493 2.7988 101.547 2.74519ZM101.134 3.01886C100.993 3.12516 100.857 3.2412 100.728 3.36684C100.807 3.32178 100.887 3.27927 100.969 3.23934C101.021 3.16457 101.076 3.09103 101.134 3.01886ZM100.827 3.4544C100.678 3.53717 100.535 3.62913 100.397 3.73005C100.349 3.78897 100.302 3.8495 100.257 3.91162C100.2 3.99021 100.146 4.07012 100.095 4.15119C100.251 4.06593 100.411 3.99027 100.575 3.92459C100.648 3.76413 100.732 3.60707 100.827 3.4544ZM100.504 4.08937C100.318 4.16998 100.139 4.26386 99.9667 4.37041C99.8681 4.55059 99.784 4.73564 99.7141 4.92405C99.9057 4.83287 100.104 4.75561 100.307 4.69313C100.358 4.48853 100.423 4.28669 100.504 4.08937ZM100.446 4.65301C100.503 4.43855 100.576 4.22748 100.668 4.02195C100.876 3.94131 101.091 3.87718 101.31 3.83038C101.237 4.05722 101.183 4.28911 101.148 4.52352C100.91 4.54737 100.675 4.59092 100.446 4.65301ZM100.275 4.83394C100.062 4.90342 99.8549 4.9897 99.6559 5.09173C99.5866 5.30566 99.5353 5.52327 99.5015 5.74245C99.7227 5.65676 99.9517 5.5889 100.186 5.54026C100.197 5.30348 100.226 5.06719 100.275 4.83394ZM100.312 5.51612C100.324 5.27309 100.358 5.03072 100.412 4.79192C100.646 4.72433 100.887 4.67676 101.131 4.65054C101.099 4.91592 101.092 5.18391 101.11 5.45084C100.839 5.44779 100.573 5.47016 100.312 5.51612ZM100.183 5.66837C99.9421 5.72001 99.7077 5.79247 99.4821 5.88417C99.453 6.12736 99.4453 6.3719 99.4585 6.61489C99.7127 6.54196 99.9757 6.49183 100.245 6.46664C100.2 6.20295 100.179 5.93564 100.183 5.66837ZM100.37 6.45679C100.323 6.18826 100.302 5.91579 100.308 5.64351C100.572 5.59504 100.844 5.5717 101.119 5.57555C101.149 5.88545 101.211 6.19315 101.307 6.49291L101.107 6.47193C100.858 6.44573 100.612 6.44119 100.37 6.45679ZM100.268 6.58963C99.9934 6.61457 99.7256 6.66618 99.4673 6.74206C99.4903 7.01344 99.5394 7.28225 99.6139 7.54443C99.8529 7.50364 100.099 7.4824 100.349 7.4824L100.55 7.48239C100.423 7.19431 100.329 6.89481 100.268 6.58963ZM100.687 7.48239C100.554 7.19196 100.456 6.8891 100.393 6.58014C100.623 6.56615 100.857 6.5709 101.094 6.5958L101.351 6.62276C101.457 6.92 101.596 7.20846 101.769 7.48239H100.687ZM100.607 7.60695L100.349 7.60695C100.111 7.60695 99.8774 7.62671 99.6501 7.66466C99.7453 7.96528 99.8745 8.25621 100.037 8.53118L101.113 8.41799C100.912 8.16372 100.744 7.89146 100.607 7.60695ZM101.261 8.40249C101.057 8.15396 100.885 7.88681 100.746 7.60695L101.851 7.60695C101.96 7.76702 102.082 7.92166 102.215 8.06964L102.406 8.28213L101.261 8.40249ZM101.208 8.53331L100.109 8.64885C100.276 8.91265 100.475 9.16037 100.704 9.38619L101.83 9.14673L101.618 8.95533C101.47 8.82213 101.333 8.68105 101.208 8.53331ZM101.981 9.11472L101.701 8.86277C101.579 8.75293 101.465 8.63758 101.359 8.51744L102.509 8.39655L102.967 8.90513C102.962 8.90628 102.956 8.90743 102.951 8.90858L101.981 9.11472ZM101.945 9.24975L100.813 9.49027C100.931 9.59866 101.057 9.70146 101.19 9.79795L101.494 10.0193L102.437 9.71299C102.443 9.71123 102.448 9.70948 102.453 9.70773L101.945 9.24975ZM102.591 9.66408L102.095 9.21774L102.977 9.03041C103.006 9.02426 103.035 9.01822 103.064 9.01228L103.442 9.43232C103.156 9.49934 102.873 9.57658 102.591 9.66408ZM102.561 9.80421C102.532 9.81318 102.504 9.82226 102.476 9.83145L101.619 10.1098L102.159 10.5019C102.43 10.3854 102.704 10.2789 102.981 10.1824L102.561 9.80421ZM103.115 10.1363L102.699 9.76123C102.976 9.67683 103.256 9.60246 103.537 9.5381L103.871 9.90887C103.617 9.97655 103.365 10.0524 103.115 10.1363ZM103.086 10.2776C102.814 10.3711 102.543 10.4742 102.276 10.5872L102.729 10.9167C102.969 10.8071 103.212 10.7053 103.457 10.6115L103.086 10.2776ZM103.588 10.5621L103.222 10.2321C103.468 10.1512 103.715 10.0781 103.965 10.013L104.256 10.3365C104.032 10.4053 103.809 10.4805 103.588 10.5621ZM103.561 10.7052C103.32 10.7961 103.081 10.8947 102.845 11.0009L104.317 12.0701C104.972 12.5463 105.46 13.209 105.723 13.9637C105.725 13.9542 105.726 13.9446 105.728 13.9351C105.62 13.0164 105.182 12.1647 104.491 11.542L103.561 10.7052ZM105.68 14.2447C105.451 13.4147 104.947 12.6819 104.244 12.1709L102.715 11.0603C102.454 11.1817 102.196 11.3126 101.942 11.4529L104.127 12.7143C104.791 13.0981 105.324 13.6642 105.668 14.3376C105.672 14.3066 105.676 14.2756 105.68 14.2447ZM105.639 14.5667C105.313 13.8387 104.764 13.2262 104.064 12.8222L101.815 11.5237C101.789 11.5384 101.763 11.5533 101.738 11.5682L100.958 12.0183L104.005 13.3748C104.66 13.6666 105.218 14.129 105.624 14.7059C105.629 14.6594 105.634 14.6131 105.639 14.5667ZM105.606 14.9008C105.206 14.2847 104.635 13.7917 103.954 13.4885L100.825 12.0953L99.8229 12.6737C99.9687 12.7402 100.12 12.7992 100.276 12.8499L103.952 14.0444C104.582 14.2489 105.143 14.6064 105.591 15.0775C105.596 15.0186 105.6 14.9597 105.606 14.9008ZM105.58 15.2489C105.134 14.7503 104.561 14.3731 103.914 14.1629L100.237 12.9683C100.048 12.9068 99.8659 12.8335 99.6914 12.7496L98.7341 13.3023C99.1638 13.5877 99.6536 13.7984 100.189 13.9122L103.97 14.7159C104.558 14.8409 105.104 15.0972 105.569 15.459C105.572 15.389 105.576 15.319 105.58 15.2489ZM105.69 15.5568C105.692 15.5001 105.695 15.4433 105.697 15.3865C105.699 15.3892 105.702 15.3918 105.704 15.3944C105.705 15.4536 105.706 15.5128 105.708 15.572C105.702 15.5669 105.696 15.5619 105.69 15.5568ZM105.564 15.6138C105.098 15.2335 104.544 14.9652 103.944 14.8378L100.163 14.0341C99.5905 13.9124 99.0686 13.683 98.614 13.3716L98.3898 13.501C98.1837 13.6201 97.9914 13.7539 97.8135 13.9004C98.455 14.4865 99.2828 14.8801 100.213 14.9779L104.058 15.382C104.59 15.4379 105.1 15.6009 105.559 15.8556C105.56 15.775 105.561 15.6944 105.564 15.6138ZM105.683 15.9274C105.683 15.8575 105.684 15.7875 105.686 15.7176C105.695 15.7262 105.705 15.7349 105.715 15.7436C105.718 15.8138 105.722 15.8839 105.726 15.9539C105.712 15.945 105.697 15.9362 105.683 15.9274ZM105.558 15.9984C105.098 15.7323 104.583 15.5625 104.045 15.5059L100.2 15.1018C99.2366 15.0005 98.3799 14.591 97.7178 13.9816C97.5104 14.1631 97.3241 14.3623 97.1596 14.5755C97.9324 15.4695 99.0747 16.0353 100.349 16.0352H104.215C104.678 16.0352 105.134 16.1169 105.561 16.2723C105.559 16.1811 105.558 16.0898 105.558 15.9984ZM105.687 16.3205C105.685 16.2383 105.684 16.1561 105.683 16.0739C105.701 16.0852 105.719 16.0967 105.737 16.1084C105.743 16.1888 105.75 16.2692 105.757 16.3494C105.734 16.3396 105.711 16.3299 105.687 16.3205ZM105.565 16.4066C105.138 16.2449 104.681 16.1598 104.215 16.1598L100.349 16.1598C99.0469 16.1598 97.8786 15.5861 97.0833 14.6776C96.9391 14.8769 96.8135 15.0876 96.7071 15.3067C97.5584 16.5144 99.0209 17.2379 100.595 17.0725L104.439 16.6684C104.823 16.6281 105.207 16.6446 105.579 16.7146C105.573 16.612 105.569 16.5093 105.565 16.4066ZM105.706 16.7404C105.7 16.646 105.695 16.5515 105.692 16.457C105.718 16.4682 105.745 16.4797 105.771 16.4915C105.781 16.5823 105.792 16.6729 105.803 16.7634C105.771 16.7553 105.738 16.7477 105.706 16.7404ZM105.587 16.843C105.217 16.7702 104.835 16.7521 104.452 16.7923L100.608 17.1963C99.0128 17.364 97.5289 16.6449 96.6468 15.4364C96.5558 15.6412 96.4814 15.8527 96.424 16.0688C97.313 17.6046 99.1179 18.4672 100.948 18.0783L104.729 17.2745C105.023 17.2121 105.32 17.1839 105.616 17.1889C105.605 17.0738 105.595 16.9584 105.587 16.843ZM105.742 17.1931C105.731 17.0856 105.722 16.9779 105.714 16.8701C105.75 16.8784 105.786 16.8872 105.821 16.8965C105.835 16.9983 105.851 17.0999 105.867 17.2013C105.825 17.1979 105.784 17.1951 105.742 17.1931ZM105.629 17.3138C105.338 17.3077 105.044 17.3348 104.755 17.3964L100.974 18.2001C99.1338 18.5912 97.3186 17.7533 96.382 16.2412C96.3384 16.4383 96.3088 16.6387 96.2938 16.8407C97.1867 18.7287 99.3647 19.7043 101.404 19.0418L105.08 17.8472C105.276 17.7836 105.476 17.7357 105.677 17.7036C105.659 17.5739 105.643 17.444 105.629 17.3138ZM105.8 17.6859C105.783 17.5637 105.768 17.4412 105.754 17.3185C105.799 17.3209 105.844 17.3241 105.889 17.3281C105.909 17.4422 105.93 17.556 105.953 17.6694C105.902 17.6739 105.851 17.6794 105.8 17.6859ZM105.694 17.8269C105.5 17.858 105.308 17.9042 105.119 17.9657L101.442 19.1603C99.4164 19.8185 97.2573 18.9061 96.2825 17.0946C96.2801 17.2643 96.2879 17.4345 96.3062 17.6046C96.3334 17.6756 96.3626 17.7463 96.3939 17.8166C97.3406 19.9428 99.8316 20.899 101.958 19.9524L105.489 18.3801C105.581 18.3392 105.674 18.302 105.768 18.2685C105.741 18.1217 105.716 17.9745 105.694 17.8269ZM105.887 18.2281C105.862 18.0889 105.838 17.9492 105.818 17.8092C105.871 17.8024 105.925 17.7967 105.979 17.7922C106.006 17.9202 106.036 18.0478 106.067 18.1749C106.007 18.1912 105.947 18.2089 105.887 18.2281ZM105.792 18.3923C105.707 18.4231 105.623 18.4569 105.54 18.4939L102.008 20.0662C99.8961 21.0067 97.4339 20.1229 96.3883 18.0928C96.48 18.492 96.6319 18.8845 96.8473 19.2577C98.0111 21.2733 100.588 21.9639 102.604 20.8001L105.901 18.8964C105.861 18.7291 105.825 18.561 105.792 18.3923ZM106.014 18.8321C105.976 18.6725 105.942 18.5123 105.911 18.3514C105.973 18.3312 106.035 18.3127 106.098 18.2957C106.135 18.4402 106.175 18.584 106.217 18.7272C106.149 18.7601 106.081 18.7951 106.014 18.8321ZM106.044 18.9578C106.321 20.0754 106.754 21.1586 107.34 22.1735L109.658 26.1887C110.7 27.9924 112.873 28.7351 114.763 28.0374C113.277 28.1872 111.754 27.5655 110.813 26.2705L108.088 22.5196C107.271 21.3945 106.655 20.1525 106.254 18.8479C106.183 18.8822 106.113 18.9189 106.044 18.9578ZM106.332 18.6745C106.389 18.6492 106.447 18.6253 106.505 18.6028C106.461 18.4797 106.418 18.3559 106.378 18.2314C106.324 18.2415 106.271 18.2528 106.219 18.2652C106.254 18.4023 106.292 18.5387 106.332 18.6745ZM106.188 18.1444C106.238 18.1326 106.289 18.1218 106.339 18.1119C106.304 18.0015 106.271 17.8906 106.239 17.7793C106.194 17.78 106.149 17.7815 106.105 17.7837C106.131 17.9044 106.158 18.0246 106.188 18.1444ZM106.079 17.6604C106.121 17.658 106.163 17.6564 106.205 17.6554C106.177 17.5562 106.151 17.4568 106.127 17.3569C106.09 17.3514 106.054 17.3463 106.018 17.3418C106.037 17.4483 106.057 17.5545 106.079 17.6604ZM105.996 17.2138C106.029 17.2176 106.062 17.2218 106.095 17.2264C106.074 17.1377 106.054 17.0487 106.035 16.9594C106.007 16.9504 105.98 16.9418 105.952 16.9334C105.965 17.027 105.98 17.1205 105.996 17.2138ZM105.933 16.7981C105.958 16.8051 105.982 16.8122 106.006 16.8196C105.99 16.7407 105.975 16.6616 105.961 16.5823C105.942 16.5725 105.923 16.5629 105.903 16.5535C105.913 16.6352 105.923 16.7167 105.933 16.7981ZM105.888 16.4079C105.903 16.4151 105.919 16.4224 105.934 16.4298C105.922 16.3606 105.911 16.2913 105.901 16.2219C105.89 16.2141 105.879 16.2065 105.869 16.1989C105.875 16.2686 105.881 16.3383 105.888 16.4079ZM105.857 16.0385C105.863 16.0429 105.87 16.0474 105.876 16.0518C105.868 15.9931 105.86 15.9343 105.853 15.8755C105.851 15.8731 105.848 15.8706 105.846 15.8682C105.849 15.925 105.853 15.9818 105.857 16.0385ZM106.044 16.3321C106.053 16.3882 106.063 16.4443 106.072 16.5003C106.079 16.504 106.086 16.5078 106.093 16.5116C106.079 16.4541 106.066 16.3965 106.052 16.3388C106.049 16.3365 106.047 16.3343 106.044 16.3321ZM106.136 16.6782C106.124 16.6715 106.113 16.665 106.101 16.6585C106.114 16.7271 106.128 16.7957 106.142 16.8641C106.158 16.8697 106.174 16.8753 106.19 16.8811C106.172 16.8136 106.153 16.746 106.136 16.6782ZM106.336 16.9368C106.32 16.8823 106.305 16.8276 106.29 16.7728C106.293 16.7747 106.296 16.7766 106.298 16.7785C106.318 16.8344 106.337 16.8902 106.357 16.9458C106.35 16.9427 106.343 16.9398 106.336 16.9368ZM106.233 17.03C106.213 17.0223 106.193 17.0147 106.173 17.0073C106.19 17.0875 106.209 17.1675 106.228 17.2473C106.253 17.2517 106.278 17.2563 106.303 17.2612C106.279 17.1844 106.255 17.1073 106.233 17.03ZM106.443 17.2911C106.422 17.2246 106.401 17.158 106.381 17.0911C106.393 17.0963 106.405 17.1016 106.417 17.107C106.442 17.1726 106.467 17.2379 106.492 17.303C106.476 17.2989 106.46 17.295 106.443 17.2911ZM106.346 17.3972C106.318 17.3911 106.289 17.3853 106.261 17.3799C106.284 17.4717 106.308 17.5632 106.334 17.6544C106.367 17.6547 106.401 17.6554 106.434 17.6566C106.404 17.5705 106.375 17.484 106.346 17.3972ZM106.569 17.6635C106.541 17.5861 106.514 17.5084 106.488 17.4304C106.509 17.4356 106.53 17.441 106.55 17.4466C106.581 17.5212 106.612 17.5955 106.644 17.6694C106.619 17.6672 106.594 17.6653 106.569 17.6635ZM106.479 17.7831C106.442 17.7814 106.406 17.7802 106.369 17.7795C106.399 17.8834 106.43 17.9868 106.463 18.0899C106.504 18.0832 106.546 18.0771 106.588 18.0717C106.55 17.976 106.514 17.8798 106.479 17.7831ZM106.716 18.0573C106.681 17.9693 106.648 17.8808 106.615 17.792C106.644 17.7944 106.673 17.7971 106.702 17.8002C106.739 17.8835 106.777 17.9665 106.816 18.049C106.783 18.0513 106.749 18.0541 106.716 18.0573ZM106.635 18.1913C106.591 18.1967 106.546 18.2029 106.502 18.2098C106.54 18.3271 106.58 18.4438 106.622 18.5598C106.671 18.5428 106.72 18.5267 106.769 18.5117C106.723 18.4055 106.678 18.2987 106.635 18.1913ZM106.89 18.4768C106.847 18.3778 106.805 18.2781 106.764 18.178C106.801 18.1748 106.837 18.1722 106.874 18.1701C106.919 18.2625 106.965 18.3544 107.012 18.4457C106.971 18.4555 106.931 18.4658 106.89 18.4768ZM106.941 18.5921C107.639 20.1473 108.658 21.5565 109.949 22.7192L113.395 25.8215C114.262 26.6024 115.365 26.9567 116.445 26.8976C116.595 26.7303 116.73 26.5524 116.85 26.3658C116.037 26.3256 115.226 26.0564 114.519 25.5422L110.768 22.8171C109.213 21.6874 107.955 20.2263 107.072 18.5597C107.028 18.5697 106.985 18.5805 106.941 18.5921ZM107.199 18.533C108.072 20.1698 109.311 21.605 110.841 22.7163L114.592 25.4415C115.299 25.9554 116.113 26.2174 116.926 26.2443C117.051 26.0339 117.158 25.8136 117.244 25.5862C116.709 25.5109 116.178 25.3334 115.681 25.0462L111.665 22.7281C109.872 21.6929 108.382 20.2393 107.307 18.5137C107.271 18.5196 107.235 18.526 107.199 18.533ZM107.138 18.418C107.171 18.4114 107.204 18.4051 107.237 18.3993C107.189 18.3213 107.143 18.2428 107.097 18.1638C107.068 18.1637 107.039 18.164 107.01 18.1647C107.052 18.2496 107.094 18.3341 107.138 18.418ZM106.95 18.0418C106.976 18.0409 107.001 18.0402 107.026 18.0398C106.987 17.9696 106.948 17.899 106.91 17.828C106.889 17.8246 106.867 17.8214 106.846 17.8183C106.88 17.8932 106.915 17.9677 106.95 18.0418ZM106.787 17.6846C106.803 17.6867 106.82 17.6889 106.837 17.6912C106.805 17.6291 106.773 17.5666 106.741 17.5039C106.729 17.4998 106.716 17.4958 106.704 17.4918C106.731 17.5563 106.759 17.6206 106.787 17.6846ZM106.643 17.3432C106.65 17.3453 106.658 17.3475 106.665 17.3498C106.64 17.2966 106.614 17.2433 106.589 17.1898C106.586 17.1882 106.583 17.1866 106.58 17.185C106.601 17.2379 106.621 17.2906 106.643 17.3432ZM106.912 17.5644C106.938 17.615 106.964 17.6653 106.991 17.7155C106.998 17.7169 107.006 17.7183 107.014 17.7197C106.983 17.6695 106.952 17.619 106.922 17.5683C106.918 17.567 106.915 17.5657 106.912 17.5644ZM107.106 17.8651C107.093 17.8623 107.08 17.8596 107.067 17.857C107.101 17.9183 107.135 17.9793 107.17 18.04C107.187 18.0403 107.204 18.0407 107.221 18.0413C107.182 17.9829 107.144 17.9242 107.106 17.8651ZM107.376 18.0494C107.344 18.0023 107.313 17.955 107.282 17.9075C107.285 17.9084 107.288 17.9094 107.292 17.9103C107.327 17.9575 107.363 18.0045 107.4 18.0512C107.392 18.0505 107.384 18.05 107.376 18.0494ZM107.307 18.1698C107.286 18.1686 107.264 18.1676 107.243 18.1667C107.285 18.2376 107.327 18.3081 107.37 18.3781C107.395 18.3745 107.42 18.3712 107.445 18.3682C107.398 18.3025 107.352 18.2364 107.307 18.1698ZM107.529 18.4841C107.5 18.4871 107.471 18.4904 107.442 18.4941C108.504 20.1823 109.969 21.6046 111.728 22.6202L115.743 24.9384C116.234 25.222 116.759 25.3955 117.288 25.4664C117.377 25.2091 117.442 24.9435 117.48 24.6736C117.246 24.6137 117.013 24.5332 116.784 24.4314L112.549 22.5456C110.531 21.6473 108.806 20.2393 107.529 18.4841ZM117.602 24.7028C117.564 24.9676 117.501 25.2284 117.415 25.4815C117.659 25.5067 117.905 25.5103 118.148 25.4928C118.25 25.2705 118.333 25.0402 118.396 24.805C118.132 24.7957 117.866 24.7621 117.602 24.7028ZM117.618 24.5787C117.887 24.6398 118.158 24.6736 118.427 24.6813C118.489 24.416 118.525 24.1452 118.535 23.8727C118.296 23.8376 118.056 23.782 117.818 23.7047L117.625 23.6422C117.657 23.9554 117.654 24.2695 117.618 24.5787ZM118.085 25.6216C117.848 25.6347 117.61 25.6284 117.372 25.6022C117.289 25.8242 117.187 26.0399 117.069 26.2466C117.293 26.2464 117.517 26.2284 117.737 26.1929C117.869 26.0108 117.985 25.8197 118.085 25.6216ZM117.63 26.3344C117.42 26.3619 117.207 26.374 116.995 26.3706C116.884 26.5497 116.759 26.7215 116.621 26.8843C116.822 26.8648 117.022 26.831 117.219 26.7829C117.368 26.642 117.506 26.492 117.63 26.3344ZM108.97 18.7899C110.97 20.1003 113.323 20.8135 115.75 20.8135L116.287 20.8135L116.033 20.3734C113.562 20.5549 111.106 19.9969 108.97 18.7899ZM109.454 18.9098C111.449 19.9371 113.699 20.4087 115.964 20.2535L115.746 19.8758C113.597 20.1028 111.429 19.7677 109.454 18.9098ZM115.881 19.8608L116.102 20.2433C116.205 20.235 116.308 20.2255 116.411 20.2146L116.945 20.1586L116.646 19.7475C116.392 19.7933 116.136 19.831 115.881 19.8608ZM116.565 19.6354C116.315 19.6791 116.064 19.7151 115.813 19.7432L115.62 19.4093C115.85 19.3736 116.08 19.3314 116.308 19.2827L116.565 19.6354ZM116.782 19.7223L117.088 20.1435L118.072 20.0401L117.627 19.5453L117.032 19.6718C116.949 19.6895 116.865 19.7063 116.782 19.7223ZM117.531 19.4385L117.006 19.5499C116.904 19.5715 116.803 19.5918 116.701 19.6108L116.441 19.2537C116.692 19.1973 116.942 19.1331 117.191 19.0609L117.531 19.4385ZM117.767 19.5154L118.225 20.024L119.376 19.903C119.27 19.783 119.156 19.6678 119.034 19.558L118.754 19.3057L117.767 19.5154ZM118.64 19.2027L117.671 19.4085L117.323 19.0217C117.404 18.9971 117.485 18.9716 117.566 18.9453L118.145 18.7573L118.64 19.2027ZM118.905 19.2737L119.118 19.4655C119.266 19.5986 119.402 19.7395 119.527 19.8871L120.627 19.7716C120.459 19.5078 120.261 19.26 120.031 19.0342L118.905 19.2737ZM119.922 18.9301L118.79 19.1707L118.282 18.7128L119.241 18.4012L119.546 18.6228C119.679 18.7192 119.804 18.8219 119.922 18.9301ZM120.177 19.0034C120.403 19.2352 120.599 19.4884 120.765 19.7571L121.022 19.73C121.259 19.7051 121.489 19.6611 121.711 19.5996C121.585 19.3106 121.426 19.0347 121.236 18.7782L120.177 19.0034ZM121.152 18.6687L120.071 18.8986C119.931 18.7649 119.78 18.639 119.619 18.522L119.387 18.3536L120.483 17.9977C120.734 18.1983 120.958 18.4239 121.152 18.6687ZM121.369 18.7498C121.553 19.0052 121.708 19.2786 121.831 19.5644C122.095 19.4829 122.346 19.3768 122.583 19.2488C122.504 18.9881 122.4 18.7354 122.273 18.4945C122.048 18.584 121.812 18.6558 121.567 18.7078L121.369 18.7498ZM122.212 18.3844C121.998 18.4687 121.774 18.5365 121.541 18.586L121.288 18.6399C121.095 18.3899 120.873 18.1587 120.624 17.9519L121.654 17.6171C121.87 17.8524 122.057 18.1101 122.212 18.3844ZM122.388 18.4466C122.513 18.6834 122.615 18.9312 122.694 19.1865C122.907 19.0631 123.108 18.9217 123.294 18.7647C123.247 18.5245 123.178 18.2895 123.091 18.0625C122.871 18.2105 122.637 18.3394 122.388 18.4466ZM123.043 17.9443C122.821 18.0963 122.582 18.2282 122.329 18.3367C122.176 18.0654 121.994 17.8097 121.784 17.5749L121.976 17.5126C122.214 17.4352 122.441 17.3391 122.656 17.2265C122.808 17.4528 122.937 17.6933 123.043 17.9443ZM123.196 17.9893C123.283 18.2098 123.352 18.4377 123.402 18.6707C123.568 18.5205 123.723 18.3574 123.863 18.1833C123.839 17.9597 123.798 17.74 123.739 17.5261C123.572 17.6943 123.39 17.8495 123.196 17.9893ZM123.699 17.3887C123.53 17.5643 123.346 17.7258 123.147 17.8708C123.042 17.6251 122.914 17.3893 122.765 17.1668C123.001 17.0343 123.221 16.8816 123.424 16.7115C123.535 16.9282 123.627 17.1547 123.699 17.3887ZM123.364 16.599C123.233 16.3604 123.078 16.1348 122.904 15.9256C122.702 16.0601 122.486 16.1794 122.257 16.2813L122.073 16.3632C122.306 16.5747 122.514 16.81 122.695 17.0638C122.935 16.9294 123.159 16.7734 123.364 16.599ZM122.584 17.1234C122.401 16.8669 122.188 16.6301 121.949 16.4187L120.959 16.8592C121.229 17.0389 121.473 17.2457 121.691 17.4742L121.937 17.3942C122.164 17.3206 122.38 17.2297 122.584 17.1234ZM121.559 17.517C121.34 17.2938 121.095 17.0928 120.824 16.9196L119.771 17.3881L120.019 17.5314C120.192 17.6308 120.354 17.7403 120.508 17.8587L121.559 17.517ZM120.363 17.9056C120.234 17.8103 120.099 17.7212 119.957 17.6392L119.631 17.4508L118.709 17.8609L119.263 18.2631L120.363 17.9056ZM119.116 18.3107L118.578 17.9194L118.022 18.167C117.944 18.2016 117.866 18.2353 117.788 18.2682L118.175 18.6166L119.116 18.3107ZM118.038 18.661L117.661 18.3211C117.421 18.4188 117.179 18.5089 116.935 18.5912L117.231 18.9193C117.33 18.8898 117.429 18.859 117.528 18.8269L118.038 18.661ZM117.098 18.958L116.806 18.634C116.584 18.7063 116.36 18.7723 116.135 18.8319L116.361 19.1438C116.608 19.0896 116.854 19.0276 117.098 18.958ZM116.228 19.1723L116.005 18.8654C115.8 18.9173 115.594 18.964 115.387 19.0053L115.553 19.2935C115.779 19.2594 116.004 19.2191 116.228 19.1723ZM115.421 19.3129L115.258 19.0304C113.672 19.3297 112.041 19.3197 110.455 18.998C112.071 19.4377 113.76 19.5454 115.421 19.3129ZM110.956 18.9628C112.361 19.191 113.794 19.1748 115.192 18.9161L115.053 18.6765C113.716 18.9964 112.332 19.0943 110.956 18.9628ZM115.179 18.6457L115.321 18.8914C115.524 18.8516 115.726 18.8068 115.926 18.7568L115.735 18.493C115.551 18.5482 115.365 18.5991 115.179 18.6457ZM115.657 18.3862C115.477 18.4394 115.296 18.4885 115.114 18.5334L114.747 17.8971C114.325 17.1666 114.16 16.3215 114.268 15.4943C114.326 16.2097 114.579 16.9021 115.008 17.4924L115.657 18.3862ZM115.861 18.4545L116.056 18.7237C116.277 18.6662 116.497 18.6025 116.715 18.5326L116.461 18.2507C116.262 18.3238 116.062 18.3917 115.861 18.4545ZM116.371 18.1509C116.177 18.2216 115.981 18.2873 115.783 18.348L115.108 17.4192C114.613 16.7366 114.359 15.9133 114.38 15.0791C114.513 15.7847 114.837 16.447 115.325 16.9893L116.371 18.1509ZM116.586 18.2038L116.844 18.4903C117.084 18.4105 117.322 18.3232 117.558 18.2284L117.234 17.9367C117.02 18.0319 116.804 18.121 116.586 18.2038ZM117.132 17.8454C116.923 17.9378 116.711 18.0241 116.497 18.1044L115.418 16.906C114.856 16.2818 114.519 15.4937 114.45 14.6661L114.451 14.6611C114.658 15.3465 115.048 15.9689 115.589 16.4557L117.132 17.8454ZM117.358 17.8806L117.686 18.1761C117.781 18.1364 117.876 18.0954 117.971 18.0532L118.461 17.8349L118.05 17.5363C117.822 17.6585 117.591 17.7733 117.358 17.8806ZM117.938 17.4549C117.714 17.5738 117.487 17.6854 117.257 17.7898L115.672 16.3632C115.09 15.839 114.688 15.1527 114.51 14.4006C114.515 14.3804 114.519 14.3602 114.523 14.34C114.803 14.955 115.239 15.4935 115.795 15.8976L117.938 17.4549ZM118.172 17.4704L118.593 17.7764L119.497 17.3738L118.921 17.0409L118.393 17.3454C118.32 17.3879 118.246 17.4295 118.172 17.4704ZM118.796 16.969L118.331 17.2375C118.241 17.2894 118.151 17.34 118.06 17.3894L115.868 15.7969C115.281 15.37 114.832 14.7883 114.567 14.1245C114.573 14.0904 114.58 14.0563 114.586 14.0222C114.924 14.5531 115.387 15.0006 115.942 15.3211L118.796 16.969ZM119.045 16.969L119.638 17.3112L120.695 16.8405C120.557 16.7591 120.413 16.6847 120.263 16.618L119.919 16.4647L119.045 16.969ZM119.778 16.4021L118.921 16.8971L116.004 15.2132C115.426 14.8793 114.95 14.4029 114.619 13.8366C114.626 13.7911 114.634 13.7456 114.641 13.7001C115.018 14.1383 115.49 14.4927 116.028 14.7322L119.778 16.4021ZM120.052 16.3877L120.314 16.5042C120.495 16.5851 120.669 16.677 120.834 16.7787L121.844 16.329C121.603 16.1299 121.337 15.9557 121.05 15.8117L120.052 16.3877ZM120.913 15.7466L119.911 16.3251L116.078 14.6184C115.523 14.3714 115.041 13.9983 114.666 13.5353C114.674 13.4796 114.681 13.4239 114.688 13.3682C115.083 13.71 115.545 13.9733 116.051 14.1377L120.461 15.5704C120.617 15.6211 120.768 15.68 120.913 15.7466ZM121.178 15.7376C121.465 15.8881 121.73 16.0682 121.97 16.2726L122.207 16.1675C122.424 16.0706 122.629 15.9576 122.822 15.8305C122.612 15.5946 122.376 15.3814 122.116 15.1961L121.178 15.7376ZM122.002 15.1179L121.045 15.6706C120.871 15.5867 120.688 15.5134 120.499 15.4519L116.09 14.0192C115.572 13.8512 115.102 13.5764 114.707 13.2182C114.714 13.1528 114.722 13.0873 114.728 13.0218C115.118 13.2681 115.553 13.4462 116.013 13.544L120.548 14.508C121.083 14.6217 121.573 14.8325 122.002 15.1179ZM114.611 12.9447C114.599 12.9369 114.588 12.9291 114.577 12.9212C114.575 12.9772 114.574 13.0333 114.571 13.0895C114.579 13.0968 114.586 13.1041 114.594 13.1114C114.6 13.0558 114.605 13.0003 114.611 12.9447ZM114.576 13.2667C114.572 13.2631 114.568 13.2595 114.564 13.2559C114.562 13.3019 114.559 13.3479 114.556 13.3939L114.559 13.3974C114.565 13.3539 114.57 13.3103 114.576 13.2667ZM114.451 12.9635C114.452 12.9196 114.453 12.8758 114.454 12.832C114.45 12.8288 114.446 12.8257 114.441 12.8225C114.444 12.8684 114.446 12.9144 114.448 12.9604L114.451 12.9635ZM113.591 11.4111C113.575 11.3704 113.558 11.3299 113.54 11.2894C113.535 11.2883 113.53 11.2871 113.525 11.2859C113.547 11.327 113.567 11.3682 113.588 11.4095L113.591 11.4111ZM113.449 11.1381C113.459 11.1408 113.468 11.1434 113.478 11.1459C113.456 11.0948 113.433 11.0438 113.41 10.993C113.396 10.992 113.383 10.9909 113.369 10.9897C113.396 11.039 113.422 11.0885 113.449 11.1381ZM113.218 10.9739C113.239 11.0122 113.26 11.0507 113.281 11.0893L113.278 11.0881C113.253 11.0493 113.228 11.0105 113.203 10.972C113.208 10.9726 113.213 10.9733 113.218 10.9739ZM113.296 10.8575C113.314 10.8595 113.332 10.8613 113.35 10.8629C113.321 10.8021 113.292 10.7415 113.262 10.6812C113.241 10.683 113.219 10.6846 113.198 10.686C113.231 10.7429 113.263 10.8001 113.296 10.8575ZM113.057 10.6927C113.086 10.7408 113.114 10.7892 113.141 10.8377C113.131 10.8362 113.121 10.8346 113.111 10.833C113.08 10.7864 113.048 10.7399 113.016 10.6937C113.03 10.6935 113.044 10.6931 113.057 10.6927ZM113.126 10.5653C113.152 10.5641 113.177 10.5626 113.202 10.5608C113.167 10.4905 113.131 10.4205 113.094 10.3509C113.065 10.358 113.037 10.3647 113.008 10.3712C113.048 10.4355 113.087 10.5002 113.126 10.5653ZM112.878 10.398C112.914 10.4549 112.949 10.5121 112.984 10.5697C112.966 10.5699 112.948 10.57 112.93 10.5699C112.891 10.5161 112.853 10.4627 112.814 10.4096C112.835 10.4059 112.857 10.4021 112.878 10.398ZM112.937 10.2591C112.969 10.2523 113.001 10.2451 113.033 10.2374C111.954 8.24359 110.337 6.5675 108.341 5.41518L104.993 3.48235C104.502 3.19861 103.977 3.02511 103.447 2.95418C103.358 3.21136 103.293 3.47682 103.255 3.74659C103.49 3.80654 103.723 3.88705 103.952 3.98902L107.483 5.56133C109.739 6.56579 111.629 8.20743 112.937 10.2591ZM103.239 3.87113C103.462 3.92894 103.684 4.0059 103.901 4.10281L107.433 5.67512C109.651 6.66279 111.512 8.27272 112.806 10.2846C112.781 10.289 112.756 10.2931 112.731 10.297C111.197 8.25152 109.06 6.71092 106.595 5.91017L103.239 4.81977C103.203 4.5027 103.203 4.18444 103.239 3.87113ZM103.133 3.71743C103.172 3.45275 103.234 3.19215 103.321 2.93918C103.076 2.91395 102.83 2.91045 102.587 2.92792C102.485 3.15017 102.402 3.38031 102.339 3.61545C102.604 3.62463 102.869 3.65822 103.133 3.71743ZM102.308 3.73912C102.577 3.74676 102.848 3.78042 103.117 3.84148C103.081 4.15059 103.078 4.46448 103.11 4.77758L102.919 4.71561C102.68 4.63811 102.44 4.58239 102.2 4.54734C102.21 4.27501 102.246 4.00425 102.308 3.73912ZM102.211 3.6129C102.27 3.38346 102.349 3.15851 102.445 2.94059C102.222 2.96422 102.002 3.00554 101.786 3.06394C101.673 3.25878 101.578 3.46095 101.499 3.66829C101.733 3.63047 101.972 3.6117 102.211 3.6129ZM101.451 3.80288C101.691 3.7601 101.935 3.73794 102.181 3.73744C102.122 3.99804 102.086 4.26379 102.076 4.53106C101.807 4.49977 101.54 4.49414 101.276 4.51265C101.313 4.27224 101.372 4.03468 101.451 3.80288ZM101.258 4.63888C101.224 4.90905 101.216 5.18215 101.235 5.45407C101.477 5.46383 101.722 5.49412 101.967 5.54626L102.163 5.58794C102.099 5.27983 102.069 4.96733 102.073 4.65613C101.799 4.62351 101.526 4.61834 101.258 4.63888ZM102.197 4.67286C102.195 4.98817 102.228 5.30475 102.297 5.61633L103.356 5.84147C103.243 5.53752 103.167 5.22641 103.125 4.91372L102.88 4.83407C102.654 4.76042 102.425 4.70702 102.197 4.67286ZM103.257 4.95656C103.303 5.26567 103.384 5.57282 103.501 5.8723L105.748 6.34998C108.395 6.91245 110.77 8.31424 112.535 10.3222C112.553 10.3203 112.571 10.3184 112.589 10.3162C111.073 8.31878 108.974 6.81414 106.557 6.02863L103.257 4.95656ZM112.675 10.4309C112.661 10.4328 112.648 10.4346 112.634 10.4363C112.671 10.4789 112.707 10.5217 112.743 10.5649C112.753 10.5654 112.764 10.5659 112.774 10.5663C112.741 10.521 112.708 10.4758 112.675 10.4309ZM112.864 10.6938C112.859 10.6937 112.854 10.6936 112.849 10.6934C112.878 10.7292 112.907 10.7651 112.935 10.8012L112.939 10.802C112.915 10.7658 112.89 10.7297 112.864 10.6938ZM112.569 10.5519C112.541 10.5185 112.512 10.4853 112.483 10.4522C112.478 10.4526 112.473 10.4531 112.468 10.4535C112.5 10.486 112.533 10.5186 112.565 10.5515L112.569 10.5519ZM112.349 10.3367C112.359 10.3361 112.37 10.3355 112.38 10.3349C110.639 8.38414 108.312 7.02217 105.722 6.47181L103.559 6.01188C103.622 6.15909 103.695 6.3042 103.778 6.44651L103.966 6.77235L104.952 6.876C107.75 7.17004 110.351 8.39723 112.349 10.3367ZM104.043 6.90568L104.939 6.99987C107.668 7.28672 110.208 8.47048 112.175 10.342L112.17 10.342C109.982 8.53534 107.234 7.52032 104.376 7.48344L104.043 6.90568ZM103.813 6.75625L103.67 6.50878C103.57 6.33624 103.484 6.15969 103.41 5.98031L102.329 5.75049C102.407 6.05318 102.519 6.35025 102.667 6.63585L103.813 6.75625ZM102.739 6.76865L103.89 6.88959L104.232 7.48241C104.226 7.4824 104.22 7.48239 104.215 7.48239L103.223 7.4824L103.002 7.17792C102.905 7.04501 102.818 6.90835 102.739 6.76865ZM102.52 6.62035C102.376 6.3298 102.267 6.02834 102.193 5.72167L101.941 5.6681C101.708 5.61854 101.475 5.58931 101.245 5.57919C101.276 5.89305 101.341 6.2045 101.443 6.50718L102.52 6.62035ZM101.489 6.63725L102.588 6.75278C102.68 6.92346 102.784 7.08997 102.901 7.25113L103.069 7.4824H101.918C101.741 7.21384 101.598 6.93016 101.489 6.63725ZM102.003 7.60695C102.096 7.73758 102.197 7.86426 102.307 7.9863L102.559 8.26604L103.545 8.1624C103.551 8.16181 103.556 8.16123 103.562 8.16065L103.16 7.60695H102.003ZM103.314 7.60695L103.706 8.14657C104 8.11952 104.293 8.10296 104.586 8.09673L104.304 7.60727C104.274 7.60706 104.244 7.60695 104.215 7.60695H103.314ZM104.449 7.60916L104.729 8.09451C107.24 8.06983 109.701 8.80264 111.79 10.1971C109.694 8.57433 107.122 7.65968 104.449 7.60916ZM111.36 10.0692C109.392 8.85154 107.119 8.20898 104.801 8.21857L105.047 8.64554C107.234 8.55767 109.413 9.046 111.36 10.0692ZM104.907 8.65196L104.658 8.21999C104.369 8.22452 104.08 8.23914 103.791 8.26402L104.121 8.71737C104.382 8.68723 104.645 8.66544 104.907 8.65196ZM104.205 8.83326C104.462 8.80514 104.72 8.78515 104.977 8.77324L105.195 9.15022C104.961 9.17094 104.727 9.19828 104.495 9.23225L104.205 8.83326ZM103.979 8.73448L103.647 8.27729C103.617 8.28018 103.588 8.28317 103.558 8.28627L102.662 8.38045L103.109 8.87611C103.398 8.8185 103.688 8.77132 103.979 8.73448ZM103.206 8.98399C103.491 8.92903 103.776 8.88428 104.063 8.84963L104.356 9.25328C104.097 9.2941 103.838 9.34317 103.581 9.40052L103.206 8.98399ZM103.677 9.50698L104.007 9.87347C104.235 9.81536 104.464 9.76378 104.694 9.71873L104.438 9.36658C104.183 9.40534 103.929 9.45212 103.677 9.50698ZM104.577 9.34623L104.829 9.69305C105.036 9.655 105.243 9.6222 105.451 9.59465L105.263 9.2693C105.034 9.28853 104.806 9.31416 104.577 9.34623ZM105.401 9.25853L105.585 9.57763C107.218 9.37924 108.883 9.50403 110.482 9.95456C108.851 9.36858 107.119 9.13359 105.401 9.25853ZM110.037 9.96626C108.598 9.61372 107.113 9.52392 105.653 9.69498L105.71 9.79427C105.743 9.85124 105.775 9.90888 105.805 9.96714C107.197 9.72752 108.629 9.72453 110.037 9.96626ZM105.676 9.98993C105.652 9.94507 105.628 9.90061 105.603 9.85655L105.519 9.71146C105.315 9.73754 105.113 9.76868 104.911 9.80488L105.127 10.103C105.309 10.0612 105.492 10.0235 105.676 9.98993ZM105.207 10.2126C105.382 10.1732 105.558 10.1377 105.734 10.1059C106.105 10.8727 106.208 11.7426 106.027 12.5765C106.017 11.7651 105.757 10.9705 105.274 10.3053L105.207 10.2126ZM104.996 10.1339L104.775 9.82998C104.549 9.87304 104.324 9.92243 104.101 9.97816L104.388 10.2968C104.589 10.2373 104.792 10.1831 104.996 10.1339ZM104.48 10.3995C104.677 10.3424 104.876 10.2902 105.075 10.2431L105.173 10.3785C105.733 11.1483 105.983 12.0972 105.88 13.0387C105.786 12.233 105.444 11.47 104.894 10.859L104.48 10.3995ZM104.348 10.4386C104.128 10.505 103.91 10.5776 103.693 10.6564L104.574 11.4494C105.185 11.9993 105.604 12.7221 105.782 13.5133C105.786 12.5665 105.438 11.6493 104.801 10.9424L104.348 10.4386ZM109.131 18.5222C111.068 19.0087 113.076 19.0153 114.988 18.5639L114.639 17.9594C114.116 17.0538 113.975 15.9776 114.245 14.9675C114.252 14.9433 114.258 14.919 114.265 14.8948C114.273 14.7825 114.285 14.6701 114.303 14.5581C114.307 14.5331 114.311 14.5082 114.315 14.4832C114.311 14.3708 114.312 14.2579 114.318 14.1447C114.319 14.1192 114.321 14.0936 114.322 14.068C114.306 13.957 114.296 13.8449 114.29 13.732C114.288 13.7068 114.287 13.6816 114.286 13.6564C114.259 13.5472 114.236 13.4366 114.218 13.3246C114.214 13.2997 114.21 13.2747 114.206 13.2497C114.168 13.1441 114.134 13.0364 114.105 12.927C114.098 12.9023 114.091 12.8777 114.085 12.8531C114.036 12.7522 113.991 12.6488 113.95 12.5433C113.941 12.5194 113.932 12.4957 113.923 12.4719C113.863 12.3767 113.808 12.2786 113.757 12.1779C113.745 12.1554 113.734 12.133 113.722 12.1107C113.653 12.0219 113.587 11.9299 113.526 11.8348C113.512 11.8139 113.498 11.7931 113.485 11.7723C113.406 11.691 113.331 11.6062 113.26 11.5178C113.244 11.4985 113.228 11.4792 113.213 11.46C113.126 11.3873 113.043 11.3108 112.962 11.2304C112.945 11.2125 112.927 11.1947 112.909 11.1769C112.816 11.1139 112.725 11.0467 112.637 10.9755C112.617 10.9594 112.597 10.9433 112.577 10.9274C112.478 10.8746 112.381 10.8174 112.287 10.7559C112.266 10.7423 112.245 10.7287 112.223 10.7152C112.119 10.6728 112.016 10.6259 111.915 10.5743C111.893 10.5629 111.87 10.5516 111.848 10.5404C111.74 10.5092 111.632 10.4733 111.526 10.4326C111.503 10.4237 111.48 10.4148 111.456 10.406C111.345 10.3863 111.235 10.3617 111.125 10.3323C109.392 9.86801 107.597 9.79047 105.862 10.0837C106.258 10.9242 106.347 11.8817 106.104 12.7861C106.047 12.9999 105.996 13.2147 105.95 13.4302C105.928 13.585 105.909 13.7399 105.893 13.895C105.887 14.0507 105.884 14.2063 105.884 14.3616C105.895 14.5189 105.909 14.6758 105.925 14.8321C105.952 14.9864 105.982 15.1399 106.014 15.2926C106.057 15.4428 106.103 15.5919 106.151 15.7399C106.209 15.8854 106.27 16.0295 106.334 16.1722C106.408 16.3117 106.484 16.4495 106.563 16.5855C106.651 16.7163 106.741 16.8452 106.833 16.9722C106.934 17.0925 107.037 17.2106 107.141 17.3266C107.253 17.435 107.367 17.541 107.482 17.6447C107.605 17.741 107.729 17.8347 107.855 17.9259C107.989 18.0102 108.125 18.0917 108.262 18.1705C108.402 18.2394 108.544 18.3055 108.687 18.3689C108.834 18.4229 108.982 18.474 109.131 18.5222ZM110.926 9.98983C109.116 9.11592 107.121 8.69768 105.118 8.76754L105.332 9.13881C107.229 8.99166 109.144 9.27926 110.926 9.98983ZM109.955 18.981C111.769 19.6856 113.73 19.9545 115.677 19.7577L115.488 19.4291C113.634 19.6964 111.742 19.5433 109.955 18.981ZM101.357 3.69369C101.148 3.73456 100.943 3.79064 100.743 3.86127C100.832 3.68123 100.935 3.50603 101.052 3.33717C101.235 3.24923 101.423 3.17465 101.615 3.11384C101.514 3.30162 101.428 3.49549 101.357 3.69369ZM123.839 17.422C123.984 17.2662 124.117 17.1003 124.238 16.9256C124.271 17.1237 124.291 17.3259 124.296 17.5311C124.2 17.7095 124.091 17.8805 123.971 18.0428C123.943 17.8317 123.898 17.6242 123.839 17.422ZM96.1575 17.1358C96.1579 17.0451 96.1612 16.9545 96.1672 16.8642C96.1288 16.7813 96.0927 16.6967 96.0592 16.6105C96.0805 16.786 96.1132 16.9614 96.1575 17.1358ZM96.0286 16.1163C96.0481 16.1897 96.0698 16.263 96.0935 16.3361C96.1235 16.4285 96.1564 16.519 96.192 16.6078C96.2143 16.4321 96.2473 16.258 96.2907 16.0866C96.2041 15.9328 96.1263 15.7726 96.0582 15.6065C96.0381 15.775 96.0281 15.9453 96.0286 16.1163ZM96.096 15.3551C96.1639 15.549 96.2451 15.7353 96.3383 15.9134C96.3988 15.7101 96.474 15.5112 96.5636 15.3184C96.4452 15.1442 96.3389 14.9606 96.2463 14.7687C96.1823 14.96 96.1321 15.156 96.096 15.3551ZM96.1716 14.6054C96.1106 14.7711 96.0597 14.9406 96.0192 15.1129C95.993 15.0209 95.9698 14.9273 95.9496 14.8324C95.9336 14.7571 95.9197 14.6819 95.9079 14.6068C95.9253 14.4369 95.953 14.269 95.9906 14.1037C96.0409 14.276 96.1015 14.4434 96.1716 14.6054ZM96.306 14.6016C96.3977 14.8068 96.5052 15.0029 96.6267 15.1884C96.7338 14.9767 96.8585 14.7731 97.0004 14.58C96.8496 14.3971 96.7134 14.2017 96.5938 13.9956C96.4819 14.1898 96.3857 14.3925 96.306 14.6016ZM96.5234 13.8695C96.4141 14.052 96.3184 14.2421 96.237 14.438C96.1629 14.2513 96.1016 14.0575 96.0543 13.8577C96.111 13.6632 96.1816 13.4734 96.2652 13.2896C96.3373 13.4902 96.4238 13.6839 96.5234 13.8695ZM96.6673 13.8729C96.7867 14.0867 96.9242 14.289 97.0777 14.4778C97.2406 14.2694 97.424 14.0742 97.627 13.8956C97.4354 13.7088 97.2615 13.5048 97.1074 13.2863C96.9431 13.4696 96.796 13.666 96.6673 13.8729ZM97.0351 13.1806C96.8738 13.3578 96.7283 13.5474 96.5997 13.7468C96.4982 13.5496 96.4118 13.3434 96.3421 13.1297C96.4432 12.93 96.5601 12.7384 96.6918 12.5568C96.7892 12.7744 96.9042 12.9829 97.0351 13.1806ZM97.1939 13.1928C97.3495 13.4163 97.5264 13.6245 97.7221 13.8143C97.9086 13.6596 98.1106 13.5184 98.3276 13.3932L98.5022 13.2923C98.2482 13.1063 98.0169 12.8941 97.8111 12.6605C97.5859 12.8192 97.3797 12.9979 97.1939 13.1928ZM97.7298 12.5654C97.5092 12.7218 97.3064 12.8968 97.1227 13.0871C96.9897 12.8832 96.8741 12.6676 96.7777 12.4425C96.9274 12.2502 97.0941 12.0702 97.2767 11.9052C97.4071 12.1385 97.5588 12.3596 97.7298 12.5654ZM97.9148 12.5897C98.1241 12.8256 98.3605 13.0388 98.6204 13.2241L99.5582 12.6826C99.2712 12.5321 99.0062 12.352 98.766 12.1475L98.5297 12.2528C98.3122 12.3496 98.107 12.4626 97.9148 12.5897ZM98.6631 12.057L98.479 12.139C98.2502 12.2409 98.0345 12.3601 97.8329 12.4945C97.6581 12.2853 97.5039 12.0598 97.3725 11.8212C97.5777 11.6468 97.8014 11.4907 98.0419 11.3564C98.2221 11.6102 98.43 11.8455 98.6631 12.057ZM98.8927 12.0912C99.1335 12.2903 99.399 12.4645 99.6867 12.6085L100.684 12.0327L100.422 11.9162C100.241 11.8353 100.067 11.7434 99.9024 11.6416L98.8927 12.0912ZM99.7769 11.5611L98.7878 12.0015C98.5486 11.7901 98.3359 11.5533 98.1524 11.2968C98.3568 11.1905 98.5728 11.0996 98.7992 11.026L99.045 10.9461C99.2625 11.1746 99.5072 11.3814 99.7769 11.5611ZM100.041 11.5799C100.179 11.6613 100.323 11.7357 100.473 11.8024L100.817 11.9557L101.675 11.4603C101.68 11.4574 101.685 11.4545 101.69 11.4516L101.098 11.1094L100.041 11.5799ZM100.964 11.0324L99.9124 11.5008C99.6414 11.3275 99.3955 11.1265 99.1768 10.9033L100.228 10.5618C100.381 10.6802 100.544 10.7898 100.717 10.8893L100.964 11.0324ZM101.238 11.0468L101.816 11.3803C102.073 11.2361 102.335 11.1016 102.6 10.9767L102.143 10.6444C102.116 10.6563 102.088 10.6683 102.061 10.6805L101.238 11.0468ZM102.026 10.5597C102.021 10.562 102.016 10.5643 102.01 10.5667L101.105 10.9698L100.779 10.7815C100.637 10.6994 100.501 10.6103 100.372 10.5149L101.472 10.1574L102.026 10.5597ZM101.348 10.0669L101.116 9.89872C100.955 9.7817 100.805 9.65568 100.665 9.52184L99.5835 9.75165C99.7777 9.99652 100.001 10.2221 100.253 10.4228L101.348 10.0669ZM100.112 10.4686C99.8621 10.2617 99.6404 10.0305 99.4479 9.78047L99.1955 9.83413C98.9625 9.88365 98.7382 9.95154 98.5236 10.0359C98.6793 10.3102 98.8662 10.5679 99.0819 10.8032L100.112 10.4686ZM98.9521 10.8454C98.7424 10.6106 98.5602 10.3549 98.4075 10.0837C98.1544 10.1921 97.9156 10.3239 97.6935 10.4759C97.7992 10.7269 97.9289 10.9673 98.0809 11.1936C98.2955 11.081 98.5224 10.985 98.7607 10.9075L98.9521 10.8454ZM97.9709 11.2533C97.8224 11.0308 97.6947 10.7951 97.5894 10.5494C97.3906 10.6944 97.206 10.8559 97.0371 11.0315C97.1094 11.2655 97.2018 11.492 97.3128 11.7086C97.5154 11.5386 97.7353 11.3858 97.9709 11.2533ZM97.2158 11.7924C97.1064 11.5822 97.0138 11.3628 96.9397 11.1362C96.7897 11.303 96.6534 11.4814 96.532 11.6693C96.579 11.8892 96.6434 12.1033 96.7237 12.31C96.8725 12.1252 97.0369 11.9519 97.2158 11.7924ZM96.635 12.4241C96.5553 12.229 96.4896 12.0273 96.4388 11.8204C96.3364 11.9945 96.2463 12.1761 96.1695 12.3637C96.1957 12.5673 96.2364 12.7664 96.2906 12.9598C96.392 12.7733 96.5071 12.5942 96.635 12.4241ZM96.208 13.1194C96.1552 12.951 96.1125 12.7782 96.0804 12.6017C96.0257 12.7625 95.9805 12.927 95.9455 13.0945C95.9493 13.17 95.9553 13.2458 95.9633 13.3219C95.9734 13.4186 95.9868 13.5143 96.0032 13.6087C96.0615 13.4415 96.1299 13.2781 96.208 13.1194ZM95.9257 13.8544C95.9053 13.7655 95.8877 13.6755 95.8728 13.5844C95.8573 13.7601 95.8528 13.9381 95.8599 14.1174C95.8791 14.0289 95.901 13.9412 95.9257 13.8544ZM95.9487 12.6027C95.9771 12.5164 96.0082 12.4311 96.0419 12.347C96.031 12.2561 96.0228 12.1644 96.0175 12.0719C95.9836 12.2457 95.9604 12.4229 95.9487 12.6027ZM96.141 11.5924C96.137 11.6681 96.1349 11.7444 96.1349 11.8211C96.1349 11.9184 96.1382 12.015 96.1447 12.1107C96.2203 11.9503 96.3054 11.7948 96.3997 11.6451C96.3648 11.4719 96.3404 11.2954 96.3269 11.1163C96.2556 11.2705 96.1935 11.4294 96.141 11.5924ZM96.4405 10.8889C96.4452 11.0944 96.4649 11.2968 96.4985 11.495C96.6189 11.3202 96.7521 11.1541 96.897 10.9982C96.8382 10.7959 96.7939 10.5883 96.765 10.377C96.645 10.5394 96.5364 10.7105 96.4405 10.8889ZM96.7445 10.1987C96.6351 10.3376 96.5341 10.4833 96.4423 10.6348C96.4458 10.5392 96.4526 10.443 96.4628 10.3464C96.4708 10.2698 96.4809 10.194 96.4929 10.1189C96.562 9.96243 96.6404 9.81099 96.7274 9.66523C96.722 9.84474 96.7279 10.0228 96.7445 10.1987ZM96.8735 10.2366C96.8973 10.4603 96.9389 10.6801 96.9972 10.8941C97.1644 10.7259 97.3461 10.5707 97.5406 10.4309C97.4537 10.2103 97.3846 9.98237 97.3345 9.74927C97.168 9.89941 97.0139 10.0624 96.8735 10.2366ZM97.3066 9.6076C97.1462 9.74737 96.9964 9.89856 96.8585 10.0597C96.8457 9.85911 96.8473 9.65577 96.8641 9.451C96.9781 9.28366 97.1039 9.12496 97.2402 8.97608C97.2468 9.18918 97.2692 9.40021 97.3066 9.6076ZM97.4423 9.6553C97.4898 9.89562 97.5581 10.1306 97.6458 10.3577C97.865 10.2098 98.0996 10.0809 98.3477 9.97375C98.2233 9.73693 98.1209 9.48913 98.0418 9.23378C97.8291 9.35716 97.6286 9.49843 97.4423 9.6553ZM98.0057 9.11081C97.7977 9.22951 97.6009 9.36474 97.417 9.51454C97.3814 9.29557 97.363 9.07267 97.3628 8.84776C97.5205 8.6893 97.6908 8.54333 97.872 8.41146C97.8975 8.64849 97.9423 8.8824 98.0057 9.11081ZM98.153 9.17153C98.2319 9.4322 98.3358 9.68491 98.4633 9.92585C98.6886 9.83626 98.9244 9.7644 99.1696 9.71229L99.3661 9.67053C99.1821 9.41515 99.0276 9.14182 98.9042 8.85611C98.6411 8.93752 98.3899 9.04364 98.153 9.17153ZM98.8562 8.74057C98.5982 8.82115 98.3514 8.92483 98.118 9.04898C98.0545 8.81403 98.0112 8.57321 97.9891 8.32927C98.1907 8.19271 98.4048 8.07316 98.6293 7.97268C98.6813 8.23489 98.7572 8.49204 98.8562 8.74057ZM99.0247 8.82081C99.1508 9.10982 99.3097 9.38564 99.4996 9.64215L100.559 9.41702C100.332 9.18516 100.136 8.93204 99.9707 8.66334L99.7138 8.69034C99.477 8.71524 99.2468 8.7593 99.0247 8.82081ZM99.9008 8.54545L99.7008 8.56647C99.4516 8.59266 99.2095 8.63947 98.9761 8.70501C98.8746 8.45207 98.7977 8.18988 98.7465 7.9224C98.9954 7.81995 99.2564 7.74064 99.5266 7.68718C99.6195 7.98424 99.7445 8.27223 99.9008 8.54545ZM99.4909 7.56725C99.4184 7.30972 99.3698 7.04605 99.3456 6.77984C99.1118 6.85633 98.8863 6.95287 98.6715 7.06764C98.6679 7.31255 98.6858 7.55656 98.7244 7.79685C98.9696 7.69776 99.2259 7.62043 99.4909 7.56725ZM98.6063 7.84662C98.5671 7.61284 98.547 7.37554 98.5465 7.13716C98.3524 7.2494 98.1678 7.37681 97.9943 7.51794C97.9711 7.74161 97.9661 7.96518 97.9786 8.18662C98.1771 8.05686 98.387 7.94293 98.6063 7.84662ZM97.859 8.26764C97.8435 8.05753 97.8433 7.84536 97.859 7.63278C97.708 7.76657 97.5664 7.91121 97.4355 8.06567C97.3974 8.26751 97.3746 8.46951 97.3663 8.67032C97.5203 8.52449 97.685 8.38983 97.859 8.26764ZM97.2384 8.79654C97.2403 8.62 97.2531 8.44235 97.2772 8.26447C97.1755 8.40028 97.0818 8.54262 96.9967 8.69091C96.9769 8.76435 96.959 8.83872 96.943 8.91399C96.9228 9.00892 96.906 9.10379 96.8925 9.19846C96.9996 9.05748 97.1152 8.92326 97.2384 8.79654ZM96.7428 9.40808C96.7509 9.317 96.762 9.22565 96.7761 9.13415C96.7068 9.29694 96.6473 9.46532 96.5984 9.63863C96.6442 9.56018 96.6923 9.4833 96.7428 9.40808ZM97.1519 8.22433C97.2055 8.15115 97.2614 8.07979 97.3193 8.01032C97.337 7.92065 97.3575 7.83104 97.3811 7.74157C97.2952 7.89611 97.2185 8.05721 97.1519 8.22433ZM97.6468 7.32374C97.6195 7.39462 97.5939 7.46663 97.5701 7.53972C97.5401 7.63206 97.5135 7.72469 97.4901 7.81747C97.6114 7.6885 97.7403 7.56714 97.876 7.45402C97.8963 7.2787 97.9276 7.10341 97.9701 6.92906C97.8549 7.05347 97.7468 7.18521 97.6468 7.32374ZM98.1484 6.74787C98.0894 6.94457 98.0456 7.14304 98.0164 7.34184C98.1848 7.21287 98.3627 7.09612 98.5485 6.99276C98.5551 6.7822 98.5771 6.57119 98.6149 6.36144C98.4507 6.47875 98.2947 6.60786 98.1484 6.74787ZM98.6505 6.18541C98.5036 6.28377 98.3627 6.39105 98.2286 6.5067C98.2616 6.41678 98.2978 6.32736 98.3373 6.23858C98.3685 6.16851 98.4014 6.09971 98.4359 6.0322C98.5499 5.90478 98.6713 5.78497 98.7989 5.6732C98.7384 5.84214 98.689 6.01319 98.6505 6.18541ZM98.7615 6.26135C98.715 6.48135 98.6867 6.70315 98.6759 6.92468C98.887 6.81634 99.1076 6.72494 99.3359 6.65205C99.3213 6.41548 99.3261 6.17737 99.3505 5.94025C99.1458 6.03163 98.9488 6.13908 98.7615 6.26135ZM99.3677 5.79686C99.1719 5.88025 98.9828 5.9778 98.8018 6.0885C98.8517 5.89385 98.916 5.70106 98.9952 5.51161C99.1553 5.38762 99.324 5.27549 99.4997 5.17596C99.4401 5.3806 99.3962 5.58815 99.3677 5.79686ZM99.5534 5.00461C99.6098 4.83732 99.6768 4.67232 99.7547 4.51059C99.616 4.60839 99.4828 4.71486 99.3561 4.82965C99.3146 4.89326 99.2747 4.95833 99.2363 5.02483C99.1877 5.109 99.1424 5.19414 99.1002 5.28012C99.2457 5.17909 99.397 5.0871 99.5534 5.00461ZM98.893 5.43331C98.9289 5.34925 98.9676 5.26584 99.0093 5.18321C98.8931 5.31656 98.7846 5.45827 98.6847 5.60794C98.7524 5.54748 98.8219 5.48926 98.893 5.43331ZM99.6479 4.43372C99.7215 4.38068 99.7967 4.33006 99.8733 4.28187C99.9178 4.20204 99.965 4.12317 100.015 4.04536C99.8856 4.16582 99.7629 4.29536 99.6479 4.43372ZM98.128 6.42008C98.0953 6.50652 98.0655 6.59342 98.0386 6.68068C97.9738 6.74367 97.9108 6.80875 97.8499 6.87586C97.9335 6.71676 98.0265 6.56468 98.128 6.42008ZM96.3198 10.5827C96.3154 10.6753 96.3139 10.7674 96.3153 10.8589C96.273 10.9391 96.2331 11.0207 96.1958 11.1036C96.2262 10.926 96.2678 10.7521 96.3198 10.5827ZM95.8867 15.1015C95.9111 15.1908 95.9381 15.2788 95.9677 15.3653C95.9522 15.4545 95.9395 15.5443 95.9296 15.6346C95.9038 15.4564 95.8896 15.2784 95.8867 15.1015ZM103.194 1.59965C103.28 1.57197 103.367 1.54705 103.455 1.5249C103.522 1.46274 103.591 1.40233 103.663 1.3438C103.502 1.41835 103.346 1.50362 103.194 1.59965ZM104.123 1.16192C104.059 1.2032 103.997 1.24642 103.934 1.29158C103.856 1.34865 103.78 1.40792 103.706 1.46925C103.88 1.43613 104.056 1.41368 104.232 1.40194C104.352 1.27207 104.48 1.14864 104.617 1.0326C104.451 1.06553 104.286 1.10862 104.123 1.16192ZM104.868 0.990807C104.705 1.11528 104.552 1.25007 104.412 1.3937C105.483 1.36663 106.565 1.73353 107.424 2.50676L110.297 5.0934C111.811 6.45715 112.955 8.15659 113.651 10.0328C113.707 10.0088 113.762 9.98335 113.817 9.95656C113.298 8.21627 112.396 6.59495 111.157 5.21942L108.571 2.34666C107.601 1.26998 106.203 0.809422 104.868 0.990807ZM113.93 9.89925C113.404 8.14965 112.496 6.51975 111.25 5.13607L108.663 2.26332C107.719 1.21478 106.38 0.733801 105.075 0.842879C105.154 0.789507 105.236 0.738457 105.32 0.68987C105.387 0.651486 105.454 0.615119 105.521 0.58075C107.103 0.239964 108.809 0.830858 109.821 2.22389L112.093 5.35128C113.068 6.69378 113.754 8.20443 114.127 9.789L114.055 9.83056C114.014 9.85427 113.972 9.87717 113.93 9.89925ZM113.853 10.0777C113.8 10.103 113.747 10.1271 113.694 10.15C113.732 10.2563 113.769 10.3632 113.804 10.4707C113.853 10.4594 113.901 10.4471 113.95 10.4338C113.919 10.3146 113.887 10.1959 113.853 10.0777ZM114.069 10.3989C114.037 10.2724 114.003 10.1464 113.966 10.0211C114.017 9.99466 114.067 9.96712 114.117 9.93843L114.156 9.91598C114.187 10.0569 114.217 10.1984 114.243 10.3404C114.186 10.3613 114.128 10.3808 114.069 10.3989ZM113.98 10.5547C113.934 10.5672 113.889 10.5788 113.843 10.5896C113.873 10.6837 113.902 10.7781 113.929 10.8729C113.97 10.8705 114.011 10.8675 114.051 10.8638C114.029 10.7604 114.005 10.6574 113.98 10.5547ZM114.176 10.8503C114.152 10.7398 114.127 10.6296 114.1 10.5199C114.155 10.5027 114.211 10.4843 114.266 10.4646C114.287 10.5857 114.307 10.7071 114.325 10.8289C114.275 10.837 114.226 10.8442 114.176 10.8503ZM114.078 10.9864C114.04 10.99 114.002 10.993 113.964 10.9955C113.988 11.0788 114.01 11.1624 114.032 11.2462C114.065 11.2497 114.097 11.2527 114.13 11.2553C114.114 11.1655 114.096 11.0758 114.078 10.9864ZM114.258 11.2634C114.241 11.1662 114.222 11.0693 114.202 10.9726C114.249 10.9667 114.296 10.9599 114.342 10.9522C114.357 11.057 114.369 11.1619 114.381 11.2671C114.34 11.2665 114.299 11.2653 114.258 11.2634ZM114.153 11.382C114.123 11.3799 114.094 11.3774 114.065 11.3747C114.083 11.4483 114.1 11.5221 114.117 11.5961C114.142 11.6027 114.166 11.6092 114.191 11.6153C114.179 11.5374 114.166 11.4596 114.153 11.382ZM114.322 11.6456C114.309 11.5599 114.295 11.4743 114.28 11.389C114.318 11.3905 114.356 11.3914 114.394 11.3918C114.403 11.4827 114.411 11.5738 114.418 11.6649C114.386 11.6589 114.354 11.6524 114.322 11.6456ZM114.211 11.7483C114.19 11.7433 114.169 11.7382 114.148 11.7329C114.162 11.7972 114.175 11.8617 114.188 11.9264C114.205 11.9338 114.221 11.941 114.238 11.9482C114.229 11.8814 114.22 11.8148 114.211 11.7483ZM114.37 12.0023C114.361 11.927 114.351 11.8518 114.341 11.7767C114.37 11.7825 114.399 11.788 114.428 11.7932C114.433 11.8718 114.438 11.9505 114.441 12.0292C114.417 12.0205 114.394 12.0115 114.37 12.0023ZM114.568 12.0729C114.599 12.0831 114.631 12.0929 114.662 12.1023C114.665 12.0109 114.666 11.9196 114.667 11.8282C114.629 11.8239 114.591 11.819 114.554 11.8135C114.56 11.8999 114.564 11.9864 114.568 12.0729ZM114.545 11.6863C114.585 11.6925 114.626 11.698 114.667 11.7028C114.666 11.597 114.664 11.4912 114.661 11.3854C114.614 11.3882 114.567 11.3901 114.519 11.3911C114.529 11.4893 114.538 11.5878 114.545 11.6863ZM114.506 11.2668C114.556 11.2658 114.607 11.2639 114.657 11.2609C114.652 11.138 114.645 11.0152 114.636 10.8925C114.579 10.9064 114.522 10.9189 114.465 10.9301C114.48 11.0421 114.494 11.1543 114.506 11.2668ZM114.447 10.8066C114.507 10.7948 114.567 10.7814 114.627 10.7666C114.615 10.6226 114.601 10.4788 114.584 10.3354L114.543 10.3536C114.491 10.377 114.438 10.3991 114.384 10.4201C114.407 10.5486 114.428 10.6774 114.447 10.8066ZM114.361 10.2952C114.405 10.2776 114.449 10.2591 114.492 10.2398L114.568 10.206C114.548 10.0433 114.524 9.88104 114.496 9.71926L114.269 9.85076C114.302 9.99832 114.333 10.1465 114.361 10.2952ZM114.239 9.72399L114.474 9.58852C114.224 8.19074 113.733 6.83336 113.01 5.58012L111.077 2.23235C110.035 0.428581 107.862 -0.314047 105.972 0.383804C107.457 0.233963 108.981 0.855649 109.921 2.15067L112.194 5.27806C113.171 6.62378 113.861 8.13677 114.239 9.72399ZM114.612 9.65283C114.64 9.81909 114.665 9.9859 114.687 10.1531L118.728 8.35405C120.84 7.4137 123.302 8.29709 124.348 10.3265C124.256 9.92771 124.104 9.53561 123.889 9.16274C122.725 7.14714 120.148 6.45655 118.132 7.62025L114.612 9.65283ZM124.43 10.8148C124.403 10.7441 124.374 10.6736 124.342 10.6036C123.396 8.47741 120.905 7.52119 118.778 8.46784L114.703 10.2823C114.721 10.4326 114.736 10.5832 114.749 10.734C114.794 10.7211 114.84 10.7073 114.885 10.6926L119.294 9.25993C121.32 8.60179 123.479 9.51388 124.454 11.325C124.456 11.1553 124.448 10.9849 124.43 10.8148ZM124.442 11.5789C123.549 9.69129 121.371 8.71597 119.333 9.37839L114.923 10.8111C114.869 10.8288 114.814 10.8454 114.759 10.8606C114.768 10.9908 114.776 11.1212 114.781 11.2516C114.93 11.238 115.08 11.2155 115.228 11.184L119.763 10.22C121.602 9.82901 123.418 10.6666 124.354 12.1784C124.398 11.9813 124.427 11.7809 124.442 11.5789ZM124.446 12.333C124.489 12.1616 124.522 11.9875 124.544 11.8118C124.58 11.9008 124.613 11.9915 124.643 12.084C124.667 12.157 124.688 12.2302 124.708 12.3035C124.708 12.4745 124.698 12.6447 124.678 12.8132C124.61 12.6471 124.532 12.4868 124.446 12.333ZM124.312 12.3508C123.423 10.8154 121.618 9.95296 119.789 10.3419L115.254 11.3058C115.098 11.3388 114.942 11.3623 114.785 11.3763C114.789 11.4893 114.791 11.6024 114.791 11.7156C115.031 11.7362 115.274 11.7342 115.517 11.7086L120.128 11.224C121.723 11.0564 123.207 11.7755 124.089 12.984C124.18 12.779 124.255 12.5672 124.312 12.3508ZM124.172 13.1021C124.262 12.909 124.337 12.7098 124.398 12.5063C124.491 12.6843 124.572 12.8707 124.64 13.0645C124.604 13.264 124.554 13.4603 124.49 13.652C124.397 13.46 124.291 13.2763 124.172 13.1021ZM124.029 13.1137C123.178 11.906 121.715 11.1825 120.141 11.3479L115.53 11.8325C115.283 11.8585 115.036 11.8609 114.791 11.8406C114.791 11.9393 114.789 12.0381 114.786 12.1368C115.098 12.2183 115.422 12.2606 115.75 12.2606H120.387C121.689 12.2606 122.857 12.8344 123.653 13.7429C123.797 13.5436 123.923 13.3329 124.029 13.1137ZM123.736 13.8406C123.877 13.6474 124.002 13.4437 124.109 13.232C124.231 13.4176 124.338 13.6137 124.43 13.8191C124.35 14.0281 124.254 14.2308 124.142 14.4251C124.023 14.2189 123.886 14.0234 123.736 13.8406ZM124.213 14.5512C124.312 14.7369 124.399 14.9307 124.471 15.1313C124.554 14.9476 124.625 14.7577 124.682 14.5633C124.635 14.3634 124.573 14.1695 124.499 13.9826C124.418 14.1786 124.322 14.3687 124.213 14.5512ZM124.565 13.8153C124.635 13.9774 124.695 14.1449 124.746 14.3173C124.783 14.1516 124.811 13.9831 124.829 13.8127C124.817 13.7378 124.803 13.6628 124.787 13.5878C124.767 13.4926 124.743 13.3989 124.717 13.3068C124.677 13.4794 124.626 13.6492 124.565 13.8153ZM124.769 13.0543C124.798 13.1408 124.825 13.2287 124.85 13.318C124.847 13.1412 124.833 12.9633 124.807 12.7852C124.797 12.8754 124.784 12.9652 124.769 13.0543ZM124.877 14.3021C124.857 14.3911 124.835 14.4793 124.81 14.5666C124.831 14.656 124.849 14.7465 124.864 14.8381C124.879 14.6614 124.884 14.4824 124.877 14.3021ZM124.791 15.3278C124.787 15.2516 124.781 15.1752 124.773 15.0985C124.763 15.0019 124.749 14.9065 124.733 14.8123C124.675 14.9795 124.606 15.1429 124.528 15.3015C124.581 15.4701 124.624 15.6431 124.656 15.8198C124.71 15.6593 124.756 15.495 124.791 15.3278ZM124.694 16.0746C124.705 16.1652 124.713 16.2568 124.718 16.3491C124.752 16.1757 124.775 15.9988 124.787 15.8194C124.759 15.9056 124.728 15.9906 124.694 16.0746ZM124.677 11.8093C124.643 11.723 124.607 11.6384 124.569 11.5554C124.575 11.465 124.578 11.3744 124.579 11.2835C124.623 11.4581 124.656 11.6336 124.677 11.8093ZM105.044 0.713483C104.967 0.764221 104.892 0.817074 104.819 0.871922C104.729 0.884782 104.64 0.900455 104.551 0.91895C104.712 0.839322 104.877 0.770888 105.044 0.713483ZM123.585 20.1952C123.531 20.2684 123.475 20.3399 123.417 20.4095C123.4 20.4992 123.379 20.5889 123.355 20.6785C123.441 20.5238 123.518 20.3625 123.585 20.1952ZM123.09 21.0963C123.117 21.0255 123.143 20.9536 123.166 20.8805C123.196 20.7881 123.223 20.6953 123.246 20.6024C123.125 20.7315 122.996 20.853 122.86 20.9663C122.84 21.1417 122.809 21.3171 122.766 21.4916C122.881 21.367 122.99 21.235 123.09 21.0963ZM122.697 21.7399C122.671 21.8274 122.641 21.9145 122.608 22.0012C122.71 21.8562 122.803 21.7037 122.887 21.5441C122.826 21.6115 122.762 21.6767 122.697 21.7399ZM122.588 21.6727C122.647 21.4759 122.69 21.2774 122.72 21.0785C122.551 21.2075 122.373 21.3243 122.187 21.4277C122.181 21.6384 122.159 21.8494 122.121 22.0592C122.285 21.9419 122.441 21.8127 122.588 21.6727ZM121.974 22.1593C122.021 21.9392 122.049 21.7174 122.06 21.4958C121.849 21.6041 121.628 21.6955 121.4 21.7684C121.414 22.005 121.41 22.2432 121.385 22.4803C121.59 22.389 121.787 22.2815 121.974 22.1593ZM121.254 22.5364C121.283 22.2931 121.29 22.0486 121.277 21.8056C121.023 21.8785 120.76 21.9286 120.491 21.9537C120.536 22.2174 120.557 22.4847 120.553 22.752C120.793 22.7004 121.028 22.628 121.254 22.5364ZM120.428 22.7768C120.433 22.5046 120.413 22.2321 120.366 21.9635C120.124 21.9791 119.878 21.9745 119.629 21.9484L119.428 21.9272C119.524 22.227 119.586 22.5347 119.616 22.8446C119.891 22.8486 120.163 22.8253 120.428 22.7768ZM119.49 22.8409C119.459 22.5271 119.393 22.2156 119.292 21.913L118.215 21.7997C118.359 22.0902 118.467 22.3915 118.541 22.6981L118.795 22.7521C119.028 22.8015 119.26 22.8308 119.49 22.8409ZM118.406 22.6693C118.328 22.3667 118.215 22.0697 118.067 21.7842L116.922 21.6638L117.065 21.9123C117.165 22.0844 117.251 22.2605 117.324 22.4394L118.406 22.6693ZM120.007 25.054C119.928 25.0991 119.848 25.1416 119.767 25.1815C119.714 25.2563 119.659 25.3298 119.601 25.402C119.743 25.2957 119.878 25.1797 120.007 25.054Z" fill="#4845D2"></path> <path class="ccustom" d="M3.57937 21.2837H0V37.4345H9.90873V34.2698H3.57937V21.2837Z" fill="#4845D2"></path> <path class="ccustom" d="M10.2506 31.9563C10.2506 35.4048 12.5641 37.6964 16.0562 37.6964C19.5264 37.6964 21.8399 35.4048 21.8399 31.9563C21.8399 28.5079 19.5264 26.1944 16.0562 26.1944C12.5641 26.1944 10.2506 28.5079 10.2506 31.9563ZM13.6335 31.9345C13.6335 30.2976 14.5939 29.2063 16.0562 29.2063C17.4966 29.2063 18.457 30.2976 18.457 31.9345C18.457 33.5933 17.4966 34.6845 16.0562 34.6845C14.5939 34.6845 13.6335 33.5933 13.6335 31.9345Z" fill="#4845D2"></path> <path class="ccustom" d="M22.3806 31.7817C22.3806 35.0774 24.5195 37.3036 27.5532 37.3036C29.0155 37.3036 30.2814 36.7798 30.9143 35.9286V37.4345C30.9143 38.9405 29.9758 39.9444 28.3171 39.9444C26.833 39.9444 25.8072 39.246 25.7417 38.002H22.3369C22.6425 40.9921 24.956 43 28.1207 43C31.8528 43 34.2099 40.5774 34.2099 36.7361V26.5218H31.1762L31.0016 27.6349C30.3905 26.7401 29.1028 26.1508 27.6187 26.1508C24.5631 26.1508 22.3806 28.4425 22.3806 31.7817ZM25.7853 31.6944C25.7853 30.123 26.833 29.0754 28.1643 29.0754C29.7139 29.0754 30.8488 30.1012 30.8488 31.6944C30.8488 33.2877 29.7357 34.379 28.1861 34.379C26.8548 34.379 25.7853 33.2877 25.7853 31.6944Z" fill="#4845D2"></path> <path class="ccustom" d="M35.1895 31.9563C35.1895 35.4048 37.503 37.6964 40.9951 37.6964C44.4653 37.6964 46.7788 35.4048 46.7788 31.9563C46.7788 28.5079 44.4653 26.1944 40.9951 26.1944C37.503 26.1944 35.1895 28.5079 35.1895 31.9563ZM38.5725 31.9345C38.5725 30.2976 39.5328 29.2063 40.9951 29.2063C42.4356 29.2063 43.3959 30.2976 43.3959 31.9345C43.3959 33.5933 42.4356 34.6845 40.9951 34.6845C39.5328 34.6845 38.5725 33.5933 38.5725 31.9345Z" fill="#4845D2"></path> <path class="ccustom" d="M49.6766 24.8194C50.7243 24.8194 51.5755 23.9683 51.5755 22.8988C51.5755 21.8294 50.7243 21 49.6766 21C48.6072 21 47.756 21.8294 47.756 22.8988C47.756 23.9683 48.6072 24.8194 49.6766 24.8194ZM47.9743 37.4345H51.3572V26.5218H47.9743V37.4345Z" fill="#4845D2"></path> <path class="ccustom" d="M53.3264 42.6726H56.6439V36.3433C57.2768 37.1726 58.7173 37.7401 60.2233 37.7401C63.4752 37.7401 65.4395 35.252 65.3522 31.8036C65.2649 28.2897 63.2352 26.1726 60.2014 26.1726C58.6518 26.1726 57.1895 26.8492 56.5784 27.8532L56.4038 26.5218H53.3264V42.6726ZM56.7094 31.9782C56.7094 30.3413 57.8006 29.25 59.3721 29.25C60.9653 29.25 61.9693 30.3631 61.9693 31.9782C61.9693 33.5933 60.9653 34.7064 59.3721 34.7064C57.8006 34.7064 56.7094 33.6151 56.7094 31.9782Z" fill="#4845D2"></path> <path class="ccustom" d="M65.7105 33.9861C65.7978 36.1905 67.5438 37.7183 70.2938 37.7183C72.9347 37.7183 74.768 36.3214 74.768 34.0734C74.768 32.4583 73.8077 31.3889 72.018 30.9524L70.0756 30.4722C69.3771 30.2976 68.9406 30.123 68.9406 29.5556C68.9406 28.9881 69.399 28.6171 70.0756 28.6171C70.8394 28.6171 71.3414 29.119 71.3196 29.8611H74.3533C74.266 27.5913 72.5418 26.1726 70.141 26.1726C67.7184 26.1726 65.9069 27.6131 65.9069 29.7956C65.9069 31.2579 66.7144 32.4583 68.8752 33.0258L70.7958 33.5278C71.3632 33.6806 71.6033 33.9425 71.6033 34.3135C71.6033 34.8591 71.1013 35.2083 70.2502 35.2083C69.268 35.2083 68.7442 34.75 68.7442 33.9861H65.7105Z" fill="#4845D2"></path> <path class="ccustom" d="M79.9128 37.7183C81.2442 37.7183 82.5755 37.1071 83.2521 36.2123L83.4704 37.4345H86.6351V26.5218H83.2739V32.1964C83.2739 33.8333 82.7938 34.7282 81.2442 34.7282C80.0438 34.7282 79.2581 34.1825 79.2581 32.1528V26.5218H75.897V33.375C75.897 35.9722 77.3374 37.7183 79.9128 37.7183Z" fill="#4845D2"></path> <path class="ccustom" d="M91.9651 37.4345V31.4762C91.9651 29.6429 92.9472 29.119 93.9075 29.119C94.977 29.119 95.6754 29.7738 95.6754 31.127V37.4345H98.9928V31.4762C98.9928 29.621 99.9532 29.0972 100.913 29.0972C101.983 29.0972 102.703 29.752 102.703 31.127V37.4345H105.977V30.2976C105.977 27.8095 104.667 26.1508 101.852 26.1508C100.281 26.1508 98.9928 26.9147 98.4254 28.0933C97.7706 26.9147 96.6357 26.1508 94.8242 26.1508C93.6238 26.1508 92.5107 26.6964 91.8559 27.5694L91.725 26.5218H88.5821V37.4345H91.9651Z" fill="#4845D2"></path> </svg>